<svg version="1.2" xmlns="http://www.w3.org/2000/svg" viewBox="0 0 1266 323" width="1266" height="323">
	<title>Central_Bank_of_India-svg</title>
	<defs>
		<clipPath clipPathUnits="userSpaceOnUse" id="cp1">
			<path d="m-1165.23-3932.32h3456.69v4533.42h-3456.69z"/>
		</clipPath>
	</defs>
	<style>
		.s0 { fill: #176fc1 } 
		.s1 { fill: #ffffff } 
		.s2 { fill: #ce0f3e } 
	</style>
	<g id="layer1">
		<g id="g4871">
			<g id="Clip-Path: g4873" clip-path="url(#cp1)">
				<g id="g4873">
					<g id="g5447">
					</g>
					<g id="g5451">
					</g>
					<g id="g5455">
					</g>
					<g id="g5459">
					</g>
					<g id="g5463">
					</g>
					<g id="g5467">
					</g>
					<g id="g5471">
					</g>
					<g id="g5475">
					</g>
					<g id="g5479">
					</g>
					<g id="g5483">
					</g>
					<g id="g5487">
					</g>
					<g id="g5491">
					</g>
					<g id="g5495">
					</g>
					<g id="g5499">
					</g>
					<g id="g5503">
					</g>
					<g id="g5507">
					</g>
					<g id="g5511">
					</g>
					<g id="g5515">
					</g>
					<g id="g5519">
					</g>
					<g id="g5523">
					</g>
					<g id="g5527">
					</g>
					<g id="g5531">
					</g>
					<g id="g5535">
					</g>
					<g id="g5539">
					</g>
					<g id="g5543">
					</g>
					<g id="g5547">
					</g>
					<g id="g5551">
					</g>
					<g id="g5555">
					</g>
					<g id="g5559">
					</g>
					<g id="g5563">
					</g>
					<g id="g5567">
					</g>
					<g id="g5573">
					</g>
					<path id="path5579" fill-rule="evenodd" class="s0" d="m0.9 322.1h320.1v-322.2h-320.1z"/>
					<path id="path5583" fill-rule="evenodd" class="s0" d="m329.2 0.6h936.7v321.5h-936.7z"/>
					<g id="g5585">
						<path id="path5587" fill-rule="evenodd" class="s1" d="m1204 211.7l-8.1 43.8h-13.5l0.9-4.9h-0.2l-0.5 0.8-0.6 0.7-0.6 0.7-0.7 0.5-0.6 0.6-0.7 0.4-0.8 0.5-0.4 0.2-0.3 0.2-0.7 0.3-0.9 0.4-0.8 0.3-0.8 0.1-0.7 0.3-0.7 0.1-0.9 0.1-0.7 0.1h-0.3l-0.3 0.1h-0.6l-1-0.1-1-0.1-1.1-0.1-0.9-0.1-0.9-0.3-0.8-0.3-0.8-0.4-0.9-0.3-0.7-0.6-0.8-0.4-0.7-0.6-0.6-0.6-0.7-0.8-0.6-0.7-0.6-0.7-0.4-0.9-0.6-0.9-0.4-0.9-0.3-0.8-0.4-1-0.4-1-0.2-0.9-0.2-1-0.2-1.1-0.2-1v-1.1l-0.1-1v-1.1l0.1-1.1 0.1-1.1 0.2-1.2 0.2-1.1 0.1-1.2 0.4-1.1 0.3-1.2 0.3-1.1 0.4-1.1 0.5-1.1 0.4-1 0.5-1.1 0.5-0.9 0.6-1 0.7-1 0.6-1 0.7-0.9 0.8-0.9 0.6-1 1-0.8 0.7-0.8 0.9-0.8 0.8-0.8 0.9-0.7 0.8-0.5 1-0.7 0.8-0.5 1-0.4 1-0.4 1-0.4 0.9-0.3 1-0.2 1-0.2 1.1-0.2h1 2.2 0.3l0.7 0.1 0.7 0.1 0.7 0.2 0.7 0.1 0.7 0.3 0.6 0.2 0.6 0.4 0.6 0.3 0.7 0.4 0.6 0.4 0.5 0.4 0.5 0.5 0.5 0.5 0.4 0.5 0.4 0.7 0.4 0.6 0.8-4.4zm-16.9 19.1l-0.1-0.9-0.2-0.8-0.2-0.9-0.3-0.8-0.4-0.7-0.2-0.3-0.3-0.4-0.2-0.3-0.4-0.3-0.2-0.3-0.3-0.2-0.4-0.3-0.4-0.1-0.3-0.2-0.5-0.2-0.3-0.1-0.5-0.1h-0.4l-0.5-0.1h-0.9-1.1l-0.8 0.1h-0.1l-0.5 0.1-0.4 0.2-0.6 0.2-0.4 0.1-0.4 0.3-0.4 0.2-0.5 0.3-0.4 0.2-0.7 0.6-0.7 0.7-0.7 0.8-0.6 0.6-0.6 0.9-0.4 0.9-0.4 0.8-0.5 0.9-0.1 1-0.3 1-0.1 1-0.1 1v1l0.1 0.9 0.1 0.8 0.3 0.9 0.3 0.7 0.4 0.8 0.3 0.3 0.2 0.3 0.2 0.3 0.4 0.3 0.3 0.3 0.3 0.2 0.3 0.2 0.4 0.2 0.4 0.1 0.4 0.2h0.4l0.4 0.2 0.4 0.1h1 0.4 1.1l0.8-0.1h0.1l0.5-0.2h0.5l0.4-0.2 0.5-0.1 0.4-0.2 0.4-0.2 0.5-0.2 0.3-0.3 0.8-0.6 0.7-0.6 0.7-0.8 0.6-0.7 0.5-0.9 0.5-0.8 0.4-1 0.3-0.9 0.3-1 0.2-1 0.2-1 0.1-1zm-31.9-31.1l-0.6 0.7-0.7 0.7-0.6 0.6-0.6 0.5-0.8 0.5-0.8 0.3-0.7 0.4-0.7 0.1-0.7 0.1h-0.8-0.8l-0.7-0.1-0.6-0.1-0.7-0.4-0.5-0.3-0.7-0.5-0.4-0.5-0.5-0.6-0.4-0.7-0.3-0.7-0.3-0.7-0.1-0.8-0.1-0.7v-0.8-0.9l0.1-0.9 0.2-0.9 0.3-0.8 0.3-0.8 0.5-0.8 0.3-0.8 0.6-0.8 0.5-0.6 0.7-0.7 0.7-0.6 0.7-0.5 0.7-0.4 0.7-0.4 0.7-0.3 0.8-0.2 0.8-0.1h0.7 0.8l0.7 0.1 0.6 0.2 0.7 0.4 0.6 0.3 0.5 0.5 0.4 0.5 0.6 0.6 0.4 0.6 0.3 0.7 0.3 0.8 0.1 0.7 0.1 0.8v0.9l-0.1 0.8v0.8l-0.3 0.9-0.2 0.9-0.3 0.8-0.4 0.7-0.5 0.8zm-23.3 55.8l8-43.8h13.7l-8.2 43.8zm4.7-70.9l-13.1 70.9h-13.5l0.9-4.9h-0.2l-0.6 0.7-0.6 0.8-0.6 0.6-0.7 0.6-0.6 0.5-0.7 0.5-0.7 0.4-0.5 0.3-0.2 0.2-0.9 0.3-0.7 0.4-0.8 0.2-0.8 0.2-0.8 0.2-0.8 0.2-0.7 0.1-0.8 0.1h-0.3l-0.2 0.1h-0.7l-0.9-0.1-1.1-0.1-1-0.1-0.9-0.2-0.9-0.3-0.9-0.2-0.8-0.4-0.8-0.4-0.8-0.5-0.7-0.4-0.7-0.7-0.7-0.6-0.6-0.7-0.6-0.7-0.5-0.8-0.6-0.8-0.6-0.9-0.4-0.9-0.4-0.9-0.3-0.9-0.3-1.1-0.2-0.9-0.3-1-0.2-1-0.1-1.1v-1l-0.1-1.1v-1l0.1-1.1v-1.2l0.2-1.2 0.2-1 0.2-1.3 0.3-1 0.4-1.2 0.2-1.1 0.5-1.1 0.4-1.1 0.5-1 0.5-1.1 0.5-1 0.6-0.9 0.6-1 0.6-1 0.8-0.9 0.6-1 0.9-0.9 0.7-0.8 0.9-0.9 0.8-0.8 0.9-0.7 0.8-0.7 0.9-0.6 0.9-0.6 0.9-0.5 1-0.4 0.9-0.4 1-0.4 1-0.3 1-0.3 0.9-0.1 1.1-0.2 1.1-0.1h2.1l0.4 0.1 0.6 0.1 1.4 0.2 0.7 0.2 0.7 0.3 0.7 0.2 0.5 0.4 0.7 0.3 0.6 0.4 0.6 0.3 1.1 0.9 0.5 0.6 0.4 0.5 0.4 0.6 0.3 0.6 5.8-31.4zm-21.9 46.2l-0.3-1.8-0.2-0.8-0.3-0.8-0.5-0.7-0.1-0.3-0.3-0.4-0.3-0.3-0.2-0.3-0.4-0.3-0.2-0.2-0.4-0.3-0.3-0.1-0.4-0.2-0.4-0.2-0.4-0.1-0.5-0.1-0.4-0.1-0.5-0.1h-1l-1 0.1-0.8 0.1h-0.2l-0.4 0.1-0.5 0.2-0.4 0.2-0.5 0.1-0.4 0.2-0.4 0.2-0.4 0.3-0.4 0.3-0.8 0.5-0.8 0.8-0.6 0.8-0.6 0.6-0.6 0.9-0.4 0.9-0.4 0.8-0.4 0.9-0.3 1-0.2 1-0.2 1-0.1 1v0.9l0.1 0.9 0.2 0.9 0.2 0.8 0.4 0.8 0.4 0.7 0.3 0.3 0.1 0.3 0.3 0.4 0.4 0.2 0.2 0.3 0.4 0.3 0.3 0.1 0.4 0.2 0.3 0.2 0.4 0.2h0.4l0.4 0.1 0.6 0.1 0.4 0.1h0.4 0.6 1l0.8-0.1 0.1-0.1 0.6-0.1h0.4l0.4-0.3 0.4-0.1 0.5-0.2 0.5-0.1 0.3-0.3 0.4-0.3 0.7-0.6 0.8-0.6 0.7-0.7 0.5-0.8 0.6-0.8 0.5-0.9 0.4-0.9 0.3-0.9 0.3-1 0.3-1 0.1-1 0.1-1zm-36.8-10.5v0.8l0.1 0.8v1.8l-0.1 0.9-0.1 1.9-0.1 1-0.2 1-5 27h-13.5l3.9-21.4v-0.2l0.1-0.2v-0.3l0.1-0.2 0.1-0.4v-0.4l0.1-0.4 0.1-0.5 0.1-0.4v-0.4l0.1-0.9 0.1-0.6v-1.9l-0.1-0.6-0.1-0.6-0.2-0.6-0.1-0.6-0.1-0.2-0.1-0.3-0.2-0.2-0.2-0.2-0.2-0.3-0.2-0.2-0.3-0.1-0.2-0.1-0.6-0.3-0.6-0.2-0.8-0.1h-1.3l-0.9 0.1-0.6 0.1-0.3 0.1-0.5 0.1-0.4 0.2-0.3 0.2-0.4 0.1-0.3 0.3-0.4 0.2-0.4 0.3-0.2 0.3-0.4 0.3-0.3 0.3-0.2 0.4-0.5 0.8-0.4 0.8-0.4 0.8-0.4 0.9-0.4 0.9-0.3 0.9-0.2 1-0.1 1-4.2 22.7h-13.6l8.1-43.8h13.5l-1.1 5.6h0.2l0.8-1 0.8-0.8 0.8-0.8 0.7-0.7 0.8-0.7 0.9-0.6 0.7-0.5 0.8-0.4 0.8-0.3 0.9-0.3 0.8-0.3 0.9-0.2 0.9-0.2 0.9-0.1 1-0.1h1.9l0.9 0.1 0.9 0.1 0.8 0.1 0.7 0.2 0.8 0.2 0.7 0.3 0.7 0.2 0.5 0.4 0.6 0.3 0.5 0.5 1 0.9 0.4 0.6 0.3 0.5 0.3 0.6 0.3 0.7 0.3 0.6 0.2 0.7 0.2 0.7 0.2 0.8 0.1 0.7zm-42.9-29.2l-11.8 64.4h-14.6l12-64.4zm-44.3-6l0.5 0.3-2.4 13.2h-0.3l-0.3-0.2-0.3-0.1-0.3-0.1-0.4-0.2-0.4-0.2-0.4-0.2h-0.4l-0.4-0.1-0.4-0.1-0.5-0.1h-0.4l-0.6 0.1-0.7 0.1-0.4 0.1-0.6 0.2-0.5 0.2-0.4 0.4-0.4 0.2-0.4 0.5-0.2 0.5-0.4 0.6-0.3 0.6-0.3 0.6-0.2 0.7-0.3 0.9-0.1 0.8-0.2 0.9-1.3 7h9.4l-2.4 12.8h-9.3l-5.8 31h-13.6l5.8-31h-4.7l2.4-12.8h4.7l1-5.6 0.3-1.7 0.4-1.7 0.4-1.5 0.4-1.6 0.2-0.7 0.3-0.7 0.2-0.7 0.4-0.8 0.3-0.7 0.5-0.7 0.4-0.7 0.5-0.8 0.2-0.3 0.3-0.4 0.3-0.4 0.3-0.4 0.3-0.3 0.3-0.4 0.3-0.4 0.4-0.3 0.8-0.9 0.8-0.8 0.9-0.7 0.8-0.7 0.9-0.6 0.9-0.6 0.9-0.5 0.9-0.5 0.9-0.4 1.1-0.3 0.8-0.3 1-0.4 1-0.1 0.9-0.1 1-0.1h1.7 0.8l0.6 0.1 0.8 0.2 0.6 0.2 0.7 0.2zm-38.1 42.3v1.1 1.3l-0.2 1.3-0.1 1.2-0.6 2.8-0.3 1.4-0.4 1.2-0.4 1.3-0.4 1.2-0.6 1.2-0.5 1.2-0.6 1-0.7 1.1-0.7 1-0.7 0.9-0.8 1-0.8 0.9-0.9 0.9-1.9 1.6-1 0.7-1.1 0.7-1 0.7-2.1 1.1-0.9 0.5-1.2 0.4-1 0.4-1.1 0.4-1.1 0.3-1.1 0.2-1.1 0.2-0.2 0.1-0.9 0.1-1.1 0.1h-1.1l-1.1 0.1-1.2-0.1h-1.1l-1.1-0.1-1.1-0.2-1-0.2-0.9-0.2-1-0.3-0.9-0.4-0.9-0.4-1-0.4-0.8-0.5-0.9-0.5-0.8-0.6-0.8-0.7-0.8-0.7-0.7-0.7-0.7-0.8-0.6-0.8-0.6-0.8-0.5-1-0.5-0.9-0.3-0.9-0.4-1-0.2-1.1-0.3-1.1v-1.2l-0.2-1.1v-2.5l0.2-1.3 0.2-1.3 0.2-1.4 0.3-1.5 0.3-1.2 0.3-1.3 0.5-1.3 0.4-1.1 0.6-1.3 0.4-1.1 1.4-2.2 0.7-1 0.7-1 0.8-1 0.8-0.8 1-0.9 0.9-0.8 0.9-0.9 1-0.6 1-0.8 1.1-0.6 1-0.6 1.1-0.5 0.9-0.5 2.2-0.9 1.1-0.4 1.1-0.2 1.1-0.3 1.1-0.2 0.2-0.1 0.9-0.1 1.1-0.1 1.1-0.1h1.2v-0.1l1.2 0.1h1.1l1.1 0.1 1 0.2 1 0.2 1 0.3 1 0.3 0.9 0.4 1 0.4 0.9 0.5 1.7 1 0.8 0.6 0.7 0.6 0.8 0.8 0.7 0.6 0.7 0.9 0.6 0.8 0.7 0.9 0.4 0.8 0.5 1 0.4 1 0.3 1 0.2 1.1 0.2 1.1 0.2 1.1zm-14.5 3.5l-0.1-0.9-0.2-0.9-0.3-0.8-0.3-0.8-0.3-0.7-0.3-0.3-0.2-0.4-0.3-0.3-0.2-0.3-0.4-0.3-0.7-0.5-0.3-0.1-0.4-0.2-0.4-0.2-0.4-0.1-0.4-0.1-0.4-0.1h-0.5-1-1l-0.9 0.1h-0.1l-0.5 0.1-0.4 0.2-0.5 0.2-0.4 0.1-0.4 0.2-0.5 0.3-0.4 0.3-0.4 0.2-0.7 0.5-0.8 0.8-0.6 0.8-0.7 0.6-0.5 0.9-0.5 0.9-0.4 0.8-0.3 0.9-0.3 1-0.2 1-0.2 1-0.1 1v1l0.2 0.8 0.1 0.9 0.2 0.8 0.3 0.8 0.5 0.7 0.5 0.7 0.2 0.3 0.3 0.2 0.3 0.3 0.3 0.3 0.3 0.1 0.4 0.3 0.8 0.3h0.4l0.5 0.1 0.4 0.1 0.4 0.1h0.6 0.4 1l0.8-0.1 0.2-0.1 0.5-0.1h0.4l0.5-0.3h0.4l0.5-0.3 0.4-0.1 0.4-0.3 0.3-0.3 0.9-0.5 0.7-0.7 1.2-1.5 0.6-0.8 0.4-0.9 0.8-1.8 0.3-1 0.2-1 0.2-1 0.1-1zm-52.3-19.4l-22.8 20.2 15.9 23.6h-19l-11.4-17.8-3.4 17.8h-13.4l13-70.9h13.6l-7.9 43 16.9-15.9zm-57.5 9.5l0.1 0.8v0.9l-0.1 0.9v0.9l-0.1 0.9-0.1 1-0.2 1-0.1 0.9-5 27h-13.5l3.9-21.3 0.1-0.2v-0.3-0.2l0.1-0.2 0.1-0.5v-0.3l0.1-0.5v-0.3l0.2-0.5v-0.4l0.1-0.4v-0.5l0.1-0.6 0.1-0.7v-0.6l-0.1-0.6-0.1-0.6-0.1-0.6-0.2-0.6-0.1-0.6-0.1-0.3-0.1-0.2-0.2-0.3-0.2-0.2-0.1-0.2-0.3-0.2-0.2-0.1-0.2-0.2-0.6-0.3-0.7-0.1-0.7-0.1h-1.3-0.6-0.5l-0.4 0.1-0.4 0.1-0.5 0.2-0.3 0.1-0.4 0.2-0.5 0.3-0.3 0.1-0.3 0.3-0.3 0.3-0.4 0.2-0.5 0.7-0.3 0.4-0.5 0.8-0.4 0.8-0.4 0.8-0.4 0.9-0.4 0.9-0.2 0.9-0.3 1-0.2 1-4.1 22.6h-13.5l8-43.8h13.6l-1.2 5.6h0.3l0.7-0.9 0.8-0.8 0.8-0.9 0.7-0.7 0.8-0.6 0.8-0.6 0.8-0.5 0.8-0.4 1.7-0.7 0.9-0.3 0.9-0.1 0.8-0.2 1-0.2 0.9-0.1h1.9l0.9 0.1 0.9 0.1 0.8 0.2 0.8 0.2 0.7 0.2 0.7 0.2 0.7 0.3 0.6 0.4 0.6 0.3 0.5 0.4 0.4 0.5 0.5 0.5 0.4 0.5 0.4 0.6 0.3 0.6 0.3 0.6 0.2 0.7 0.2 0.7 0.2 0.7 0.2 0.7 0.1 0.8 0.1 0.8zm-60.1-9.5h13.6l-8.1 43.8h-13.5l0.9-4.9h-0.2l-0.6 0.8-0.6 0.7-0.6 0.6-0.6 0.6-0.7 0.6-0.6 0.5-0.8 0.5-0.5 0.1-0.3 0.2-0.8 0.4-0.7 0.3-0.8 0.3-0.8 0.2-0.8 0.2-0.7 0.1-0.8 0.1-0.8 0.1h-0.2l-0.4 0.1h-0.5l-1.1-0.1-1-0.1-1-0.1-0.9-0.2-1-0.2-0.8-0.3-0.8-0.4-0.8-0.3-0.8-0.5-0.7-0.5-0.7-0.7-0.7-0.6-0.6-0.6-1.2-1.5-0.4-0.9-0.6-0.9-0.4-0.9-0.5-0.8-0.3-1-0.3-1-0.2-0.9-0.3-1-0.1-1.1-0.1-1-0.1-1-0.1-1.1v-1.1l0.1-1.1 0.1-1.1 0.1-1.2 0.3-1.1 0.1-1.2 0.3-1.1 0.3-1.2 0.4-1.1 0.4-1.1 0.4-1 0.5-1.1 0.5-1 0.5-1 0.6-1 0.6-1 0.6-1 0.8-0.9 0.7-1 0.7-0.8 0.8-0.9 0.9-0.8 0.8-0.8 0.9-0.8 0.9-0.6 0.8-0.6 0.9-0.7 0.9-0.5 1-0.4 0.9-0.4 1-0.4 1-0.3 1-0.2 1-0.2 1-0.2 1.1-0.1h2.1l0.4 0.1 0.6 0.1 0.8 0.1 0.6 0.2 0.7 0.2 0.7 0.2 0.6 0.3 0.7 0.3 0.6 0.3 0.7 0.4 0.5 0.3 0.6 0.5 0.5 0.5 0.5 0.5 0.4 0.5 0.4 0.6 0.4 0.6zm-3.4 19.2l-0.1-1-0.2-0.9-0.2-0.8-0.3-0.7-0.5-0.8-0.2-0.3-0.2-0.4-0.2-0.3-0.4-0.3-0.2-0.2-0.4-0.3-0.3-0.3-0.3-0.1-0.4-0.2-0.4-0.2-0.4-0.1-0.5-0.1h-0.4l-0.5-0.1h-0.5-0.5-1l-0.8 0.2h-0.1-0.5l-0.5 0.2-0.4 0.2-0.5 0.2-0.4 0.2-0.4 0.2-0.4 0.2-0.4 0.3-0.8 0.6-0.7 0.7-0.7 0.7-0.6 0.8-0.5 0.9-0.5 0.8-0.4 0.9-0.4 0.9-0.3 0.9-0.2 1-0.1 1.1-0.2 0.9v1l0.2 0.9 0.1 0.8 0.3 0.8 0.3 0.8 0.4 0.7 0.2 0.4 0.2 0.3 0.4 0.3 0.3 0.3 0.3 0.2 0.3 0.3 0.3 0.1 0.4 0.2 0.4 0.2 0.4 0.2 0.3 0.1 0.5 0.1 0.4 0.1 1 0.1h0.5l1-0.1 0.8-0.1h0.2l0.4-0.1 0.5-0.1 0.4-0.2 0.5-0.2 0.4-0.2 0.5-0.1 0.3-0.3 0.4-0.2 0.8-0.6 0.7-0.7 0.7-0.8 0.6-0.7 0.5-0.8 0.5-0.8 0.4-1 0.3-0.9 0.3-1 0.3-1 0.1-1 0.1-1zm-36.2-29.9l0.1 0.8v1.9l-0.1 1.1-0.1 1-0.1 1.1-0.2 1.1-0.2 1.1-0.3 1.1-0.2 0.9-0.4 1-0.4 1-0.4 0.9-0.4 0.9-0.5 0.9-0.5 0.9-0.6 0.7-0.6 0.7-0.8 0.8-0.7 0.6-0.8 0.6-0.8 0.6-1 0.5v0.1l0.7 0.1 0.7 0.1 0.7 0.2 0.6 0.2 0.5 0.3 0.6 0.3 0.5 0.2 0.5 0.4 0.5 0.3 0.5 0.4 0.4 0.4 0.4 0.5 0.3 0.4 0.3 0.5 0.3 0.5 0.2 0.5 0.5 1.1 0.3 1.2 0.2 0.6v0.7l0.1 0.7 0.1 0.7v1.4l-0.1 1.5-0.1 1.6-0.3 1.6-0.3 1.2-0.2 1.2-0.3 1.2-0.5 1.1-0.4 1.1-0.4 0.9-0.5 1-0.6 0.9-0.5 0.8-0.6 0.8-0.7 0.8-0.6 0.7-0.8 0.6-0.8 0.6-0.8 0.6-0.8 0.5-0.9 0.5-0.9 0.4-0.9 0.4-0.9 0.4-0.9 0.3-0.9 0.4-0.9 0.2-0.9 0.3-1 0.2-0.9 0.2-0.9 0.2-0.9 0.1-1 0.1-0.9 0.1-1 0.1h-0.9-22.5l11.9-64.4h21.7 0.9l0.9 0.2 0.8 0.1 0.8 0.2 0.8 0.1 0.8 0.1 0.7 0.3 0.7 0.2 0.6 0.3 0.7 0.4 0.6 0.3 0.5 0.3 0.6 0.4 0.5 0.5 0.5 0.4 0.5 0.5 0.4 0.5 0.4 0.6 0.3 0.6 0.3 0.7 0.2 0.7 0.3 0.8 0.1 0.7zm-14.8 32.6v-0.4l-0.1-0.4v-0.3l-0.1-0.4-0.2-0.3-0.1-0.3-0.2-0.3-0.2-0.2-0.2-0.3-0.3-0.1-0.2-0.2-0.6-0.3-0.6-0.3-0.7-0.2-0.6-0.2-0.7-0.2-0.7-0.1-0.7-0.1h-0.6-5.5l-2.6 13.9h1.9 0.1 0.1 2.6 0.4 0.6 0.5l0.6-0.2h0.7l0.7-0.3 1.4-0.3 0.6-0.3 0.7-0.3 0.6-0.3 0.6-0.4 0.5-0.4 0.5-0.6 0.5-0.6 0.4-0.6 0.3-0.8 0.2-0.9 0.2-0.9 0.2-1v-0.9zm0.9-25.1l-0.1-0.7-0.1-0.8-0.2-0.2-0.1-0.3-0.1-0.4-0.1-0.1-0.2-0.2-0.2-0.3-0.2-0.1-0.2-0.2-0.6-0.2-0.5-0.3-0.6-0.2-0.5-0.2h-0.6l-0.6-0.2-0.6-0.1h-0.6-2.5l-2.3 12.5h1.7v0.1h0.4l0.5-0.1h0.2 0.6l0.7-0.1 0.7-0.1 0.6-0.2 0.6-0.2 0.7-0.3 0.7-0.3 0.3-0.1 0.3-0.2 0.2-0.2 0.3-0.2 0.3-0.2 0.2-0.3 0.3-0.2 0.2-0.4 0.3-0.6 0.4-0.8 0.2-0.9 0.2-0.9 0.2-0.9zm-67.7-23.8h13.4l-13 70.9h-13.4zm-27.5 27.1h13.5l-8.1 43.8h-13.4l0.8-4.9h-0.2l-0.5 0.7-0.6 0.7-0.7 0.7-0.5 0.6-0.7 0.5-0.8 0.5-0.7 0.5-0.4 0.2-0.3 0.1-0.8 0.4-0.8 0.4-0.8 0.2-0.7 0.3-0.8 0.1-0.8 0.2h-0.7l-0.8 0.2h-0.3-0.3-0.6-1l-1-0.1-1-0.1-0.9-0.2-1-0.3-0.8-0.3-0.8-0.3-0.8-0.4-0.8-0.5-0.8-0.5-0.7-0.6-0.6-0.6-0.6-0.7-0.7-0.7-0.5-0.8-0.6-0.9-0.5-0.8-0.8-1.8-0.4-1-0.2-1-0.3-0.9-0.3-1-0.1-1.1-0.1-1-0.1-0.9v-2.3-1.1l0.1-1.1 0.2-1.2 0.2-1.1 0.2-1.1 0.3-1.2 0.3-1.1 0.4-1.1 0.3-1.1 0.4-1.1 0.5-1 0.6-1.1 0.4-1 0.7-1 0.6-1 0.6-0.9 0.7-0.9 0.8-1 0.7-0.9 0.8-0.9 0.8-0.7 0.9-0.9 0.8-0.7 0.9-0.7 0.9-0.6 0.9-0.6 0.9-0.5 0.9-0.5 1-0.4 0.9-0.3 1-0.4 1.1-0.1 0.9-0.2 1.1-0.2 1-0.1h2.1l0.4 0.1h0.8l1.3 0.4 0.6 0.1 0.7 0.2 0.7 0.3 0.7 0.3 0.6 0.3 0.6 0.4 0.6 0.4 0.5 0.5 0.5 0.5 0.5 0.5 0.4 0.5 0.4 0.6 0.4 0.6zm-3.4 19.1l-0.1-0.9-0.2-0.9-0.2-0.8-0.3-0.8-0.4-0.8-0.2-0.3-0.3-0.4-0.5-0.5-0.3-0.3-0.4-0.3-0.3-0.2-0.3-0.2-0.4-0.2-0.4-0.1-0.5-0.1-0.3-0.2h-0.5l-0.5-0.1h-0.4-0.6-1l-0.8 0.2-0.1 0.1h-0.5l-0.5 0.1-0.4 0.2-0.5 0.2-0.4 0.2-0.4 0.2-0.4 0.3-0.4 0.3-0.8 0.5-0.7 0.8-0.6 0.7-0.7 0.8-0.5 0.8-0.5 0.9-0.4 0.8-0.4 0.9-0.3 1-0.2 1-0.2 1v1 1l0.1 0.8 0.1 0.9 0.3 0.8 0.3 0.8 0.5 0.7 0.2 0.3 0.2 0.3 0.3 0.3 0.2 0.3 0.4 0.3 0.3 0.2 0.3 0.2 0.4 0.2 0.3 0.2 0.5 0.1 0.4 0.1 0.4 0.1 0.4 0.1 1 0.1h0.5l1-0.1 0.8-0.1h0.1l0.5-0.1 0.5-0.1 0.4-0.2 0.5-0.1 0.4-0.2 0.4-0.2 0.4-0.2 0.5-0.3 0.7-0.6 0.7-0.6 0.7-0.8 0.6-0.7 0.5-0.8 0.5-0.9 0.4-0.9 0.4-0.9 0.5-2 0.1-1.1 0.1-0.9zm-32.3-19.7l2.6-0.1-2.7 14.9h-0.3l-0.2-0.2-0.5-0.2-0.6-0.3-0.5-0.2-0.5-0.1-0.5-0.1-0.6-0.1h-0.6l-0.6-0.1h-0.6l-1.4 0.1h-0.6l-0.6 0.1-0.6 0.2-0.6 0.1-0.5 0.3-0.5 0.1-0.5 0.4-0.6 0.2-0.4 0.3-0.4 0.4-0.4 0.3-0.4 0.4-0.3 0.5-0.3 0.4-0.7 1-0.6 1-0.5 1.2-0.5 1-0.4 1.3-0.3 1.3-0.4 1.3-0.2 1.3-3.4 17.6h-13.4l8.1-43.7h13.5l-1.4 7.1h0.2l0.7-0.9 0.6-0.9 0.8-0.8 0.8-0.9 0.8-0.6 0.8-0.7 0.9-0.5 1.7-0.9 0.9-0.4 1-0.3 0.9-0.3 1-0.2 0.8-0.2 1-0.1zm-32.7 13.4h-7.6l-5.7 30.9h-13.5l5.6-30.9h-4.3l2.3-12.8h4.4l2.4-13.3h13.6l-2.5 13.3h7.6zm-31.5-3.4l0.1 0.8v0.8l-0.1 1v0.8 1l-0.2 0.9-0.3 1.9-5 27.1h-13.5l4-21.4v-0.1l0.1-0.3v-0.3l0.1-0.1v-0.5l0.1-0.4 0.1-0.5v-0.3l0.1-0.5 0.1-0.3 0.1-0.5v-0.4l0.1-0.7v-0.6-0.7-0.6l-0.1-0.6-0.1-0.6-0.2-0.6-0.1-0.5-0.1-0.3-0.2-0.3-0.1-0.3-0.4-0.3-0.2-0.2-0.2-0.2-0.3-0.1-0.6-0.3-0.6-0.2-0.8-0.1h-1.3l-0.5 0.1h-0.5l-0.4 0.1-0.4 0.1-0.9 0.3-0.4 0.2-0.4 0.2-0.3 0.2-0.3 0.2-0.3 0.3-0.3 0.3-0.4 0.3-0.2 0.3-0.3 0.4-0.5 0.8-0.5 0.8-0.4 0.8-0.3 0.9-0.3 0.9-0.4 1-0.2 1-0.2 0.9-4.2 22.7h-13.5l8.1-43.8h13.5l-1 5.6h0.1l0.8-0.9 0.8-0.9 0.7-0.8 0.8-0.7 0.8-0.7 0.8-0.5 0.8-0.6 0.8-0.4 1.7-0.7 0.8-0.2 0.9-0.2 0.9-0.2 1-0.1 0.9-0.1h1.9l0.9 0.1 0.8 0.1 0.9 0.1 0.8 0.2 0.7 0.2 0.7 0.3 0.6 0.2 0.6 0.4 0.6 0.3 0.5 0.5 0.5 0.5 0.4 0.4 0.5 0.6 0.3 0.5 0.3 0.7 0.6 1.2 0.2 0.7 0.2 0.7 0.1 0.8 0.2 0.8 0.1 0.7zm-47.4 4.6l0.1 1.2v1.2 1.2l-0.1 1.3-0.1 1.3-0.2 1.3-0.2 1.4-0.3 1.5h-28.4l-0.2 1.3-0.1 1-0.1 1 0.1 1 0.1 0.8 0.3 0.8 0.3 0.8 0.2 0.3 0.2 0.3 0.2 0.5 0.2 0.2 0.2 0.2 0.4 0.2 0.3 0.3 0.2 0.2 0.4 0.2 0.3 0.1 0.5 0.2 0.3 0.1 0.4 0.1 0.4 0.1 1 0.1h2.6l0.4-0.1 0.5-0.2 0.5-0.1 0.1-0.1 0.4-0.1 0.4-0.2 0.5-0.3 0.4-0.3 0.4-0.3 0.4-0.3 0.4-0.5 0.4-0.5 0.4-0.4 0.4-0.5h13l-0.4 0.9-0.5 1-0.4 0.8-0.4 0.9-0.6 0.9-0.5 0.7-0.5 0.8-0.6 0.7-0.6 0.7-0.6 0.7-0.6 0.6-0.8 0.6-0.6 0.6-1.5 1-0.7 0.4-0.8 0.5-0.9 0.3-0.7 0.4-0.8 0.4-0.8 0.3-0.8 0.3-0.8 0.3-0.8 0.2-0.8 0.2-0.6 0.2h-0.2l-0.8 0.1-0.8 0.2-0.8 0.1-0.8 0.1h-0.8-0.9-1.1-1.2l-1-0.2-1.1-0.2-1-0.1-1-0.3-1-0.4-0.9-0.3-0.9-0.3-1.7-1-0.8-0.5-1.5-1.2-0.8-0.7-0.5-0.7-0.7-0.8-0.6-0.8-0.5-0.9-0.4-0.8-0.4-1-0.4-0.9-0.2-1.1-0.2-1-0.2-1.1-0.1-1.1-0.1-1.2v-1.3l0.1-1.2 0.1-1.4 0.2-1.3 0.2-1.4 0.2-1.4 0.4-1.3 0.4-1.3 0.3-1.1 0.4-1.3 0.5-1.2 0.5-1.1 0.6-1 0.6-1.1 0.6-1.1 0.6-1 0.7-0.9 0.8-0.9 0.8-0.8 0.8-0.9 1.8-1.5 0.8-0.8 1-0.6 0.9-0.6 1-0.6 1-0.5 1-0.4 1-0.4 1-0.4 1-0.4 1.1-0.2 1.1-0.2 1.1-0.2 0.8-0.1h0.3l1.1-0.1h2.4l1.2 0.1 1.1 0.2 1.1 0.1 1.1 0.2 0.9 0.3 1 0.3 0.9 0.5 0.9 0.3 0.8 0.5 0.8 0.6 0.7 0.5 0.7 0.7 0.6 0.8 0.6 0.7 0.6 0.7 0.5 0.9 0.4 0.9 0.4 0.9 0.4 0.9 0.3 1 0.2 1 0.3 1.1 0.1 1.1zm-27.4 1.5h15.7l-0.1-0.7v-0.8l-0.2-0.7-0.2-0.5-0.2-0.7-0.3-0.6-0.4-0.5-0.4-0.5-0.6-0.4-0.4-0.4-0.5-0.3-0.6-0.3-0.6-0.2-0.6-0.1-0.6-0.1h-1.4l-0.7 0.1h-0.1l-0.7 0.1-0.7 0.2-0.7 0.3-0.7 0.2-0.6 0.4-0.6 0.4-0.6 0.4-0.6 0.6-0.5 0.6-0.6 0.5-0.4 0.7-0.4 0.7-0.4 0.8zm-13.2-34.7l-3.7 20.1-0.4-0.8-0.5-0.8-0.5-0.7-0.5-0.7-0.7-0.6-0.7-0.6-0.6-0.5-0.8-0.5-0.8-0.4-0.7-0.4-0.9-0.3-0.8-0.3-0.8-0.1-1-0.2-0.8-0.1h-1.8l-0.8 0.1-0.8 0.1-0.8 0.1-0.7 0.2-0.8 0.2-0.7 0.3-0.8 0.3-0.8 0.4-0.7 0.3-0.7 0.5-0.7 0.4-0.7 0.5-0.6 0.6-0.7 0.5-0.6 0.6-0.6 0.7-0.6 0.7-0.6 0.7-0.5 0.7-0.5 0.8-0.5 0.6-0.5 0.9-0.8 1.5-0.3 0.9-0.3 0.8-0.4 0.8-0.2 0.9-0.2 1-0.3 0.8-0.2 1-0.1 1-0.2 0.8v0.9l-0.1 0.9v1.7l0.1 0.8v0.8l0.3 0.7 0.1 0.7 0.2 0.8 0.3 0.8 0.2 0.6 0.4 0.8 0.3 0.6 0.8 1.2 0.4 0.6 0.6 0.5 0.5 0.5 0.5 0.5 0.6 0.3 0.5 0.4 0.7 0.4 0.6 0.2 0.7 0.3 0.7 0.2 0.7 0.1 0.7 0.2 0.8 0.1h0.8 1.7 1l0.8-0.2 1-0.2 0.8-0.2 0.9-0.4 1-0.3 0.9-0.5 0.9-0.4 0.9-0.6 0.8-0.6 0.9-0.6 0.8-0.6 0.7-0.7 0.8-0.7 0.7-0.8-3.6 20-1.1 0.3-1 0.4-1 0.3-0.9 0.4-1 0.2-0.9 0.2-0.9 0.3-0.9 0.3-0.7 0.1-0.7 0.1-0.7 0.1-0.7 0.1-0.8 0.1h-0.6l-0.8 0.1h-0.7l-1.5-0.1-1.4-0.1-1.4-0.1-1.4-0.3-1.3-0.4-1.2-0.4-1.4-0.5-1.2-0.6-1.2-0.5-1.2-0.7-1.1-0.9-1.1-0.8-1-0.9-1-1-1-1-0.9-1.1-0.9-1.2-0.8-1.3-0.7-1.3-0.6-1.3-0.6-1.4-0.5-1.4-0.3-1.6-0.4-1.5-0.2-1.6-0.1-1.5-0.2-1.7v-1.6l0.2-1.7 0.1-1.7 0.2-1.7 0.3-1.8 0.4-1.7 0.3-1.6 0.5-1.6 0.5-1.6 0.6-1.6 0.7-1.5 0.7-1.6 0.8-1.5 0.8-1.6 0.9-1.5 1-1.4 0.9-1.4 1.1-1.3 1.1-1.3 2.3-2.4 1.2-1.1 1.3-1.1 1.3-1.1 1.3-0.9 1.4-0.9 1.4-0.9 1.4-0.8 1.5-0.7 1.5-0.6 1.4-0.6 1.6-0.5 1.4-0.4 1.5-0.3 1.4-0.3 1.5-0.2 1.4-0.1h0.7l0.9 0.1h0.8l0.8 0.1 1.7 0.2 0.8 0.2 0.9 0.2 0.7 0.1 1.6 0.4 1.5 0.6 1.5 0.7 1.5 0.7z"/>
					</g>
					<g id="g5589">
						<path id="path5591" fill-rule="evenodd" class="s1" d="m1110.4 92.6h102.4l-0.8 7.2h-6.9l-3.8 40.9h-13.3l3.9-40.9h-12.4l-3.7 40.9h-13.3l0.9-9.3-1 0.7-1 0.6-0.9 0.6-0.9 0.5-1.1 0.5-1 0.4-0.9 0.4-1 0.4-1 0.4-0.7 0.1-0.2 0.1-1 0.3-2 0.3-1 0.1-1 0.1h-1-1.7l-1.6-0.2-1.5-0.2-1.5-0.2-0.6-0.3-0.8-0.2-0.5-0.2-0.7-0.2-0.7-0.3-0.6-0.4-0.6-0.3-0.5-0.3-0.6-0.3-0.5-0.5-0.6-0.3-0.4-0.5-0.6-0.4-0.4-0.5-0.4-0.5-0.5-0.5-0.3-0.5-0.5-0.6-0.4-0.5-0.3-0.7-0.6-1.2-0.7-1.4-0.4-1.2-0.4-1.4-0.3-1.4-0.2-1.4-0.3-1.6-0.1-1.6v-1.7-1.7l2.1-1.1 0.1 0.2h0.5 0.7l0.9 0.1 1-0.1h1 0.9l0.9-0.2 0.9-0.1 0.7-0.2 0.9-0.3 0.8-0.2 1-0.5 0.8-0.4 0.7-0.5 0.4-0.3 0.2-0.3 0.3-0.3 0.2-0.3 0.3-0.3 0.2-0.4 0.1-0.3 0.1-0.4 0.2-0.4v-0.4l0.1-0.6v-1.1l-0.1-0.5-0.1-0.6-0.1-0.5-0.1-0.5-0.2-0.5-0.3-0.4-0.2-0.4-0.3-0.4-0.3-0.4-0.4-0.3-0.4-0.4-0.4-0.3-0.4-0.3h-23.6l-1 11.1h-23l-0.7 0.1-0.5 0.1-0.4 0.1-0.2 0.1-0.2 0.1-0.3 0.1-0.4 0.4-0.1 0.2v0.3l-0.2 0.3-0.1 0.2v0.2l-0.1 0.4v1.1l0.1 0.4 0.1 0.3 0.2 0.2 0.1 0.3 0.3 0.2 0.3 0.2 0.3 0.2 0.3 0.2 0.8 0.1 0.5 0.1 0.4 0.1h13.9 0.5l1.3 0.2 0.6 0.1 0.6 0.2 0.5 0.1 0.6 0.2 0.6 0.3 0.5 0.2 1 0.7 0.5 0.4 0.6 0.3 0.4 0.4 0.6 0.5 0.4 0.4 0.4 0.5 0.4 0.5 0.4 0.4 0.3 0.7 0.2 0.5 0.2 0.5 0.3 0.6 0.2 0.6 0.1 0.6 0.2 0.6 0.1 0.6v0.6l0.1 0.7v0.7l-0.1 0.7-0.1 0.8-0.1 1-0.2 0.8-0.2 0.9-0.3 0.8-0.2 0.8-0.3 0.8-0.4 0.8-0.4 0.7-0.4 0.7-1 1.4-0.6 0.7-0.6 0.6-0.5 0.6-0.7 0.6-1.5 1.2-0.7 0.5-0.8 0.4-0.8 0.5-0.9 0.4-0.9 0.3-1 0.4-0.8 0.3-1.1 0.2-1 0.2-2.1 0.3-1 0.2h-4.1l-1.8-0.2-1.8-0.2-2-0.3-2.5-0.5-2.5-0.6-2.2-0.6-2.1-0.6-1.9-0.7-1.7-0.7-0.9-0.4-0.7-0.3-0.8-0.5-0.6-0.3-0.6-0.3-0.5-0.4-0.5-0.4-0.6-0.4-0.5-0.5-0.5-0.5-0.6-0.6-0.5-0.6 4.5-10.9v0.1 0.2l0.1 0.2 0.2 0.2 0.5 0.4 0.6 0.6 0.8 0.5 1 0.7 1.2 0.6 1.4 0.9 1.6 0.8 1.6 0.8 1.6 0.7 1.6 0.6 1.6 0.5 1.6 0.4 1.6 0.3 1.4 0.3 1.1 0.2h0.9l1 0.1h1 0.8l0.9-0.1h0.8l0.8-0.2 0.6-0.2 0.8-0.1 0.5-0.3 0.6-0.2 0.5-0.3 0.4-0.3 0.4-0.3 0.4-0.5 0.3-0.4 0.2-0.5 0.2-0.5 0.1-0.5 0.2-0.4v-0.5l-0.2-0.3-0.1-0.4-0.2-0.4-0.2-0.3-0.3-0.3-1.2-1-0.4-0.1-0.3-0.3h-0.6l-0.5-0.2h-0.8-11.8l-0.6-0.1-0.7-0.1-1.2-0.2-0.7-0.1-0.5-0.2-0.6-0.2-0.5-0.3-1.2-0.5-0.6-0.3-0.5-0.4-0.5-0.3-0.6-0.4-0.5-0.4-0.5-0.5-0.6-0.4-0.5-0.5-0.4-0.6-0.3-0.5-0.4-0.5-0.3-0.5-0.2-0.5-0.3-0.5-0.2-0.6-0.1-0.6-0.2-0.5v-0.6l-0.1-0.6v-1.2l0.1-0.6 0.2-0.6v-0.6l0.3-0.6 0.1-0.6 0.3-0.5 0.2-0.5 0.4-0.5 0.3-0.6 0.4-0.5 0.4-0.5 0.5-0.4 0.5-0.5 0.5-0.5 0.5-0.4 0.6-0.4 1.1-0.7 1.1-0.5 1.3-0.6 1.2-0.4 1.2-0.3 1.2-0.2 1.3-0.2 1.4-0.1h12.8l0.3-3.4h-37.5l-3.9 40.9h-13.2l3.9-40.9h-7l0.8-7.2h5.2l-0.2-0.5-0.2-0.4v-0.4l-0.2-0.6v-0.5l-0.1-0.6 0.1-0.5v-0.6l0.2-1.2 0.2-1.1 0.2-1.2 0.3-1.1 0.4-1.1 0.4-1 0.6-0.9 0.4-1 0.7-0.8 0.6-0.9 0.7-0.8 0.8-0.8 0.8-0.7 0.9-0.7 0.9-0.7 1-0.6 1.1-0.6 1.1-0.5 1.1-0.6 1.3-0.4 1.2-0.4 1.4-0.4 1.4-0.4 1.4-0.3 1.5-0.3 1.6-0.2 1.6-0.1 1.7-0.2 1.8-0.1 1.7-0.1h3.9l2 0.1 2 0.1 1.9 0.1 1.9 0.2 1.7 0.2 3.3 0.5 1.5 0.4 1.4 0.3 1.4 0.5 1.3 0.4 1.2 0.6 1 0.5 1.1 0.6 0.9 0.6 0.8 0.7 0.6 0.5 0.6 0.6 0.6 0.6 0.4 0.7 0.4 0.7 0.5 0.6 0.3 0.8 0.3 0.8 0.4 1.6 0.2 0.9v0.9l0.1 1v0.9l-0.1 1.1v1 0.5l-0.2 0.5v0.5l-0.2 0.5-0.2 0.5-0.1 0.3-0.2 0.4-0.2 0.3-0.7 0.8zm-10.4-4.9v-1.6l-0.1-0.7-0.1-0.7-0.3-0.6-0.2-0.6-0.3-0.6-0.5-0.4-0.3-0.4-0.5-0.4-0.6-0.4-0.6-0.3-0.6-0.2-0.8-0.3-0.7-0.2-0.8-0.2-0.9-0.2-0.9-0.1-1-0.1-1.1-0.1h-1.2l-1.1-0.1h-1.2l-1.3 0.1-2.4 0.1-2.2 0.2-2.1 0.2-1.9 0.3-1.8 0.4-1.6 0.4-0.8 0.2-0.8 0.3-0.7 0.2-0.6 0.3-0.7 0.3-0.5 0.3-0.6 0.3-0.5 0.4-0.5 0.3-0.4 0.4-0.4 0.4-0.4 0.4-0.3 0.4-0.3 0.4-0.1 0.5-0.3 0.4-0.2 0.5-0.1 0.5-0.1 0.5-0.2 0.5v2.6l0.3 0.6v0.3l0.2 0.2 0.1 0.2 0.1 0.2 0.2 0.1 0.1 0.1h0.2 0.2 0.2l0.3-0.1v-0.1-0.2h30.9l-0.5-0.4 0.7-0.4 0.6-0.5 0.5-0.5 0.5-0.6 0.4-0.5 0.3-0.6 0.1-0.7zm64.7 30.5l1.7-18.3h-10.7l0.5 0.6 0.5 0.7 0.4 0.8 0.2 0.8 0.2 0.8 0.2 0.9v1l-0.1 1-0.1 0.6-0.1 0.7-0.2 0.7-0.2 0.7-0.3 0.6-0.2 0.5-0.4 0.7-0.8 0.9-0.5 0.6-0.6 0.5-0.2 0.1-0.4 0.3-0.6 0.5-0.7 0.4-0.7 0.4-0.7 0.3-1.1 0.5-1.1 0.4-1.1 0.3-1.1 0.3-1.2 0.2-1.2 0.2-1.2 0.1h-1.3v1.2l0.2 1 0.1 1 0.3 1 0.3 0.9 0.4 0.7 0.4 0.7 0.5 0.7 0.3 0.2 0.3 0.3 0.4 0.2 0.3 0.3 0.7 0.4 0.9 0.3 0.9 0.3 1 0.1 1 0.1h1.1 0.9l1-0.1 1-0.1 0.4-0.2 0.6-0.1 0.9-0.3 1-0.4 0.8-0.4 0.9-0.5 0.9-0.5 0.9-0.7 0.8-0.7 0.8-0.7 0.8-0.7 0.8-0.9 0.7-0.9zm-117.4-30.4l-0.8 0.6-0.7 0.4-0.8 0.4-0.9 0.2-0.8 0.2-0.9 0.2-0.9 0.1-0.8-0.1-0.9-0.1-0.9-0.2-0.8-0.3-0.9-0.3-0.6-0.4-0.8-0.5-0.7-0.6-0.6-0.6-0.5-0.7-0.3-0.4-0.2-0.3-0.2-0.4v-0.4l-0.3-0.4-0.1-0.4v-0.5l-0.1-0.4-0.1-0.9 0.1-0.9 0.1-1 0.2-0.9 0.3-0.9 0.4-0.8 0.6-0.8 0.6-0.8 0.5-0.7 0.8-0.6 0.9-0.6 0.7-0.5 0.8-0.5 0.9-0.3 0.9-0.3 0.9-0.2h0.9 1 0.8l0.9 0.1 0.8 0.2 0.8 0.3 0.7 0.4 0.7 0.5 0.7 0.5 0.6 0.6 0.6 0.6 0.4 0.7 0.4 0.8 0.3 0.7 0.2 0.8 0.1 0.9 0.1 0.8-0.1 1-0.1 0.9-0.3 0.9-0.2 0.8-0.4 0.8-0.4 0.8-0.6 0.6-0.6 0.7-0.7 0.7zm-58.5 4.8h55.9l-0.7 7.2h-7.7l-1.1 11.5h-26.4l-0.7 0.1h-0.5l-0.5 0.2-0.4 0.3-0.3 0.3-0.4 0.5-0.2 0.5-0.1 0.6v0.3l0.1 0.3 0.1 0.3 0.1 0.2 0.2 0.3 0.2 0.1 0.3 0.2 0.3 0.1 0.4 0.1h0.6 0.8l1.1 0.1h13.9l1.3 0.1 1.2 0.2 1.1 0.4 1.1 0.4 1 0.4 0.4 0.2 0.5 0.4 0.5 0.2 0.4 0.4 0.5 0.4 0.4 0.4 0.4 0.5 0.4 0.5 0.3 0.4 0.3 0.6 0.2 0.5 0.3 0.6 0.3 1.1 0.1 0.7 0.1 0.7v2l-0.2 0.7v0.7l-0.2 0.6-0.2 0.6-0.2 0.7-0.1 0.6-0.3 0.5-0.1 0.5-0.4 0.5-0.3 0.5-0.3 0.5-0.7 0.8-0.5 0.3-0.4 0.4-0.4 0.4-0.5 0.4-0.8 0.4-0.9 0.4-0.9 0.4-1.2 0.3-1.1 0.3-1.3 0.2-1.3 0.2-1.5 0.1-1.3 0.1h-1.4-1.3l-1.4 0.1h-1.4-3.8l-0.1 0.2-0.1 0.2-0.1 0.2v0.5 0.2l0.1 0.1 0.2 0.3 0.4 0.3 0.4 0.3 0.6 0.2 0.7 0.1 0.7 0.3 0.9 0.1 1 0.1 1.1 0.2 1.1 0.1 2.8 0.1h3.1l-1 8.2-0.3 0.1-0.7 0.1-0.9 0.1h-1.4-1.7l-1.6-0.1-1.6-0.1h-1.4l-1.5-0.1-1.3-0.2-1.2-0.2-1.3-0.2-1-0.2-1.1-0.3-0.9-0.3-0.9-0.3-0.7-0.4-0.8-0.3-0.7-0.5-0.5-0.4-0.4-0.3-0.3-0.4-0.4-0.4-0.8-1.1-0.4-0.5-0.4-0.7-0.3-0.7-0.7-1.5-0.8-1.7-0.7-1.9-0.8-2.2-1.2-0.4-1.2-0.5-1.1-0.6-1.1-0.7 1.6-8.5 1.4 0.7 1.5 0.7 1.4 0.6 1.4 0.8 1.3 0.4 1.5 0.5 1.5 0.3 1.6 0.3 1.8 0.2 1.9 0.2 2 0.1h2.1 2.2 1.7 1.1l0.8-0.2 0.6-0.1 0.5-0.3 0.5-0.3 0.3-0.3 0.3-0.4 0.2-0.4 0.2-0.6 0.1-0.6v-0.6-0.5l-0.1-0.2-0.1-0.2-0.1-0.1-0.2-0.2-0.1-0.2-0.2-0.1-0.2-0.1-0.1-0.1h-0.6l-0.6-0.1h-11.5l-1.3-0.1-1.3-0.1-1.3-0.2-1.1-0.2-1.1-0.4-1.1-0.4-1-0.5-1.1-0.6-0.5-0.4-0.5-0.3-0.5-0.4-0.4-0.4-0.4-0.4-0.4-0.5-0.3-0.3-0.3-0.5-0.2-0.5-0.3-0.5-0.1-0.5v-0.5l-0.2-0.6-0.1-0.5v-1.2l0.1-0.6 0.2-0.6 0.1-1.1 0.3-0.5 0.3-0.6 0.2-0.5 0.3-0.5 0.4-0.4 0.4-0.5 0.4-0.5 0.5-0.4 0.5-0.4 0.5-0.4 0.5-0.3 0.6-0.3 1.1-0.5 1.1-0.5 1.1-0.4 1.2-0.4 1.2-0.2 1.2-0.2 1.4-0.1h17.5l0.4-3.9h-35.5zm-76.5 44.7l0.1 0.5 0.1 0.6v1.4l-0.1 0.7-0.1 0.6-0.2 0.6-0.3 0.6-0.4 0.5-0.3 0.6-0.4 0.4-0.6 0.5-0.5 0.4-0.6 0.3-0.6 0.4-0.5 0.2-0.6 0.3-0.7 0.1-0.6 0.1-0.7 0.1h-0.6l-0.7-0.1-1.2-0.4-0.5-0.2-0.6-0.3-0.5-0.4-0.6-0.4-0.4-0.5-0.4-0.4-0.3-0.5-0.2-0.6-0.2-0.6-0.1-0.6v-1.4l0.1-0.7 0.2-0.7 0.5-1.3 0.4-0.5 0.4-0.6 0.5-0.5 0.5-0.5 0.6-0.4 0.5-0.3 0.6-0.4 0.6-0.3 0.6-0.2 0.7-0.1 0.6-0.1h1.4l0.6 0.1 0.6 0.2 0.6 0.2 0.5 0.3 0.5 0.3 0.6 0.4 0.5 0.4 0.3 0.5 0.4 0.5 0.3 0.5zm-20.7-44.6h73.6l-0.7 7.2h-30.8l-0.7 7.5 1.2-0.7 1.2-0.5 1.3-0.5 1.4-0.4 3-0.4 1.5-0.2h2.5l1 0.1 0.8 0.1 1 0.2 0.8 0.1 0.8 0.3 0.8 0.2 0.8 0.2 0.7 0.4 0.8 0.2 0.6 0.4 0.7 0.4 0.6 0.5 0.7 0.4 0.5 0.5 0.6 0.6 0.5 0.5 0.6 0.7 0.5 0.7 0.4 0.5 0.4 0.8 0.3 0.7 0.3 0.7 0.3 0.8 0.2 0.8 0.3 1.7v0.9l0.1 0.8v0.9l-0.1 0.9v1l-0.1 0.9-0.2 0.9-0.2 0.8-0.5 1.7-0.4 0.7-0.2 0.8-0.5 0.7-0.4 0.7-0.4 0.7-0.5 0.6-0.5 0.7-0.5 0.5-0.7 0.6-0.6 0.6-0.6 0.5-0.6 0.4-0.6 0.5-0.7 0.3-0.6 0.4-0.8 0.3-0.6 0.3-0.8 0.3-0.7 0.2-0.8 0.3-0.7 0.2-0.8 0.2-0.9 0.1-0.8 0.2-0.8 0.1-0.9 0.1h-0.9l-1.3 0.1-1.2-0.1-1.2-0.1-0.9-0.1-0.5-0.2-0.4-0.1-0.4-0.1-0.4-0.2-0.3-0.2-0.3-0.2-0.2-0.2-0.3-0.3 1-9.5 0.3 0.2 0.4 0.1 0.5 0.2h0.4l1.1 0.1 1 0.1 0.9-0.1 1.6-0.1 0.7-0.2 0.7-0.1 0.6-0.2 0.5-0.4 0.6-0.2 0.4-0.4 0.4-0.4 0.4-0.4 0.3-0.5 0.2-0.5 0.2-0.5 0.2-0.7 0.1-0.6v-1.5l-0.1-0.6-0.2-0.6-0.2-0.5-0.3-0.5-0.3-0.5-0.4-0.4-0.5-0.4-0.5-0.3-0.6-0.2-0.7-0.3-0.6-0.1-0.9-0.1-0.8-0.1h-1-0.5-0.6l-0.6 0.2h-0.5l-0.6 0.1-0.9 0.4-0.6 0.2-0.4 0.2-0.5 0.4-0.5 0.2-0.5 0.4-0.4 0.3-0.5 0.4-0.4 0.4-0.4 0.5-2.1 22h-13.2l0.9-10.8-0.9 0.6-1.2 0.4-1.1 0.4-1.1 0.2h-0.1l-1.3 0.2-1.2 0.2h-1.6-1.4-0.8l-0.8-0.1-0.7-0.1-1.5-0.3-0.7-0.3-0.7-0.2-0.7-0.3-0.7-0.4-0.6-0.4-0.6-0.4-0.6-0.4-1.2-1-0.6-0.6-0.5-0.6-0.5-0.6-0.4-0.6-0.5-0.7-0.4-0.7-0.4-0.6-0.4-0.8-0.2-0.6-0.3-0.7-0.2-0.8-0.2-0.8-0.1-0.7-0.1-0.8v-0.7l-0.1-0.8v-0.9l0.1-0.8 0.3-3.2 0.2-2.8 0.2-2.5 0.2-2.1 0.2-1.7 0.1-1.4 0.1-1 0.1-0.7h-3.7zm14.4 24.1l0.1 0.7 0.2 0.6 0.1 0.5 0.3 0.5 0.3 0.5 0.3 0.3 0.4 0.3 0.5 0.3 0.4 0.2 0.6 0.1 0.5 0.2h0.6l0.7 0.1 0.6-0.1h0.5l0.6-0.1 0.5-0.1 0.6-0.1 0.5-0.2 0.6-0.2 0.5-0.3 0.5-0.2 0.5-0.3 0.5-0.3 0.5-0.4 0.4-0.4 0.5-0.4 0.5-0.5 1.6-17.5h-13l-0.1 0.9-0.1 1.1-0.1 1.3-0.1 1.7-0.3 1.7-0.2 2.1-0.1 2.3-0.3 2.5v0.9l-0.1 0.8zm-14.5-26.3l-0.9 0.2-1 0.3-2 0.5-1 0.2-1.1 0.2-1 0.1-1.1 0.1-1.2 0.1h-1.1-1.3-1.1l-1.1-0.1h-1.1l-1.1-0.2-1-0.1-1-0.3h-1l-0.9-0.4-0.9-0.2-0.9-0.2-0.9-0.5-0.8-0.2-0.7-0.4-0.8-0.5-0.6-0.4-0.7-0.4-1-0.8-0.8-0.8-0.8-0.9-0.7-0.9-0.6-1-0.7-1-0.4-1.1-0.5-1.1-0.4-1.4-0.3-1.4-0.3-1.3-0.3-1.4h14v0.4 0.6l0.2 0.4 0.1 0.5 0.2 0.4 0.4 0.5 0.3 0.5 0.4 0.4 0.4 0.3 0.3 0.3 0.2 0.2 0.4 0.4 0.3 0.1 0.5 0.2 0.4 0.2 0.4 0.2 0.8 0.2 1 0.1 1 0.1h1.2l1-0.1 1.1-0.1 0.9-0.2 0.9-0.1 0.9-0.3 0.7-0.3 0.7-0.3 0.6-0.3 0.6-0.4 0.4-0.5 0.4-0.5 0.7-1 0.3-0.6 0.2-0.7 0.1-0.6h14.2l-0.6 1.4-0.5 1.3-0.6 1.4-0.6 1.4-0.7 1.2-0.6 1.1-0.8 1-0.8 1-0.8 1-1 0.8-1 0.8-1.1 0.7-0.7 0.5-0.8 0.5-0.8 0.4-0.9 0.3zm-56.8 9.4l0.7-7h53.5l-0.7 7.2h-6.9l-3.8 40.9h-13.3l3.9-40.9h-6.9v-0.2h-5.2l-3.9 41.1h-13.3l2-20.6h-10.2l0.5-5.4 0.4-3.8h10.2l1.1-11.3zm-3.3 25.7l0.1 0.9-0.1 1-0.1 1-0.1 0.9-0.1 0.6v0.2l-0.2 0.9-0.3 0.8-0.2 0.9-0.3 0.7-0.3 0.7-0.4 0.7-0.4 0.8-0.4 0.5-0.5 0.7-0.5 0.6-0.5 0.5-0.6 0.5-0.5 0.5-0.7 0.4-0.7 0.5-0.6 0.4-0.8 0.4-0.8 0.3-0.8 0.3-0.9 0.3-0.8 0.3-0.9 0.2-0.9 0.2-1 0.2-1 0.1-1.1 0.1-1.1 0.1h-1.1l-1.2 0.1h-0.7l-0.8-0.1h-0.8-0.8l-1-0.2h-1.2l-1.1-0.2-1.1-0.2-1-0.3-1-0.3-1-0.3-1-0.4-1-0.3-1-0.5-0.9-0.4-1-0.6-0.9-0.5-0.9-0.7-0.9-0.6-0.9-0.7-1-0.7-1.7-1.6-0.8-0.8-0.7-0.8-0.6-0.8-0.6-0.8-0.5-0.8 7-9.1 0.5 0.8 0.6 0.8 0.6 0.7 0.6 0.8 0.7 0.6 0.6 0.7 0.8 0.6 0.8 0.6 0.6 0.5 0.5 0.5 0.6 0.5 0.7 0.4 0.6 0.4 0.6 0.3 0.7 0.3 0.6 0.3 0.6 0.2 0.6 0.2 0.6 0.2 1.3 0.2h0.6l0.7 0.1h0.6l0.9-0.1h1l0.9-0.2 0.7-0.1 0.7-0.2 0.6-0.2 0.6-0.2 0.5-0.3 0.6-0.3 0.4-0.5 0.4-0.5 0.4-0.6 0.3-0.8 0.3-0.8 0.2-0.8 0.1-0.9v-1l-0.1-0.5-0.1-0.4-0.1-0.5-0.2-0.3-0.2-0.4-0.7-0.6-0.4-0.3-0.3-0.2-0.5-0.2-0.6-0.2-0.6-0.1-0.6-0.1-0.6-0.1h-9.3l0.8-8.3h10.4 0.5l0.4-0.1 0.4-0.1 0.4-0.1 0.3-0.2 0.3-0.2 0.3-0.3 0.2-0.3 0.2-0.2 0.2-0.4 0.1-0.3 0.2-0.4 0.1-0.5v-0.4l0.1-0.5-0.1-0.5v-0.4l-0.2-0.4-0.2-0.4-0.2-0.3-0.4-0.3-0.2-0.3-0.5-0.2-0.5-0.2-0.4-0.2-0.6-0.1-0.7-0.1-0.6-0.1h-0.8-0.7l-2.8 0.2-1.4 0.2-1.4 0.4-1.3 0.3-1.4 0.5-1.3 0.6-1.4 0.7-3.7-9.3 1.4-0.6 1.3-0.5 1.4-0.7 1.3-0.5 1.2-0.5 1.3-0.4 1.2-0.3 1.3-0.3 1.2-0.3 1.2-0.2 1.3-0.1h1.2l1.9-0.1 1.8 0.1 1.8 0.2 1.7 0.2 0.8 0.2 0.8 0.2 0.8 0.2 0.8 0.2 0.7 0.3 0.7 0.3 0.7 0.3 0.7 0.4 0.8 0.5 0.8 0.5 0.6 0.5 0.7 0.5 0.5 0.6 0.5 0.6 0.5 0.7 0.4 0.6 0.3 0.6 0.3 0.8 0.2 0.7 0.2 0.8 0.1 0.7v0.9 0.8 0.9l-0.3 0.7-0.1 0.8-0.1 0.3-0.1 0.4-0.5 1.4-0.4 0.6-0.3 0.6-0.5 0.6-0.5 0.6-0.5 0.5-0.6 0.5-0.6 0.5-1.3 0.8-0.7 0.5-0.8 0.3 0.9 0.6 0.8 0.6 0.9 0.7 0.7 0.6 0.7 0.7 0.6 0.7 0.5 0.7 0.5 0.8 0.4 0.8 0.4 0.7 0.2 0.9 0.2 0.5 0.1 0.3 0.1 0.9zm-137.2-32.7h78.6l-0.7 7.2h-35.1l-0.7 7.4 1.5-0.8 1.5-0.7 1.5-0.6 1.4-0.5 1.4-0.4 1.3-0.2 0.6-0.2h0.7l0.7-0.1h1.5l0.9 0.1 0.9 0.1 0.9 0.1 0.8 0.2 0.8 0.2 0.8 0.2 0.8 0.4 0.8 0.4 0.7 0.3 0.7 0.5 0.6 0.4 0.7 0.5 0.6 0.6 0.6 0.6 0.7 0.5 0.6 0.7 0.4 0.7 0.5 0.7 0.5 0.7 0.6 1.5 0.4 0.7 0.3 0.9 0.1 0.8 0.2 0.8 0.1 0.8 0.2 0.9v1.9l-0.2 0.9v1l-0.3 1.8-0.3 0.9-0.1 0.8-0.7 1.7-0.2 0.8-0.9 1.4-0.4 0.8-0.5 0.6-0.5 0.7-0.6 0.7-0.6 0.7-0.7 0.5-0.6 0.7-0.7 0.4-0.6 0.6-0.7 0.4-0.7 0.5-0.7 0.4-0.7 0.4-0.7 0.2-0.8 0.3-0.7 0.3-0.8 0.3-0.7 0.2-0.8 0.2-0.9 0.1-0.8 0.1-0.8 0.1h-0.9-2.7-0.7-0.6l-0.6-0.2-0.5-0.1-0.5-0.1-0.3-0.2-0.3-0.2-0.4-0.3-0.5-0.5 1.2-12 0.5 0.2 0.6 0.3 0.6 0.1 0.5 0.2 0.6 0.2 0.5 0.1h0.5l0.6 0.1 0.7-0.1h0.7l0.6-0.2 0.7-0.2 0.5-0.2 0.5-0.3 0.5-0.3 0.3-0.3 0.4-0.6 0.3-0.4 0.3-0.6 0.2-0.5 0.2-0.6 0.1-0.8 0.1-0.7v-0.8-0.7-0.7l-0.3-1.1-0.1-0.5-0.2-0.4-0.3-0.4-0.3-0.3-0.4-0.3-0.4-0.3-0.5-0.2-0.7-0.1-0.7-0.1-0.8-0.1-0.8-0.1-1-0.1-1 0.2h-0.4l-0.6 0.2-0.5 0.1-0.4 0.2-0.6 0.2-0.5 0.3-0.4 0.4-0.5 0.3-0.6 0.4-0.4 0.3-0.5 0.5-0.5 0.5-0.5 0.5-0.4 0.6-2.1 22h-13.3l0.8-7.9-1.6 0.7-1.6 0.7-1.6 0.5-1.6 0.5-1.6 0.4-1.6 0.3-1.6 0.1-1.6 0.1h-0.8-0.7l-0.8-0.2h-0.8l-0.7-0.1-0.6-0.2-0.7-0.3-0.7-0.2-0.6-0.3-0.6-0.3-0.6-0.4-0.6-0.4-0.5-0.4-0.6-0.4-0.5-0.5-0.5-0.6-0.5-0.5-0.3-0.7-0.4-0.5-0.4-0.7-0.3-0.6-0.5-1.3-0.3-0.7-0.1-0.8-0.2-0.7-0.1-0.8-0.1-0.8v-2.5l0.1-0.9 0.1-1 0.1-0.9 0.2-0.8 0.2-0.9 0.2-0.8 0.3-0.8 0.3-0.8 0.3-0.8 0.4-0.8 0.4-0.7 0.4-0.7 0.4-0.7 0.5-0.6 0.5-0.6 0.5-0.7 0.6-0.7 0.6-0.5 0.6-0.5 0.7-0.6 0.6-0.4 0.7-0.4 0.7-0.4 0.6-0.4 0.8-0.3 0.7-0.3 0.8-0.2 0.7-0.2 0.8-0.2 0.9-0.1h0.7l0.9-0.1 0.8-0.1 1.7 0.1 1.5 0.1 0.7 0.1 0.7 0.1 0.6 0.2 0.7 0.1 0.5 0.2 0.6 0.3 0.5 0.1 0.6 0.3 0.5 0.3 0.5 0.3 0.4 0.3 0.4 0.4-0.9 10.1-0.7-0.6-0.7-0.6-0.6-0.4-0.7-0.4-0.7-0.3-0.8-0.2-0.7-0.1h-0.9-0.8l-0.7 0.1-0.7 0.2-0.7 0.2-0.5 0.2-0.7 0.3-0.4 0.2-0.5 0.4-0.4 0.4-0.4 0.4-0.3 0.5-0.4 0.5-0.2 0.6-0.1 0.6-0.2 0.7-0.2 0.6v2l0.2 0.6 0.2 0.5 0.2 0.4 0.3 0.5 0.3 0.4 0.4 0.3 0.5 0.3 0.5 0.2 0.4 0.2 0.5 0.1 0.5 0.1 0.6 0.1h0.6l0.7-0.1h0.7l0.7-0.2h0.6l0.7-0.2 0.6-0.1 0.7-0.2 0.5-0.3 0.6-0.2 1-0.7 0.5-0.3 0.5-0.4 0.4-0.4 0.4-0.5 0.5-0.3 2-21.6h-30.3zm0.9-2.8l-0.9-0.1-0.9-0.2-0.8-0.3-0.7-0.3-0.8-0.4-0.7-0.5-0.7-0.6-0.6-0.6-0.6-0.7-0.2-0.4-0.2-0.3-0.2-0.4-0.2-0.4-0.1-0.4-0.1-0.4v-0.5l-0.1-0.4-0.1-0.9 0.1-0.9 0.1-1 0.2-0.9 0.4-0.9 0.3-0.8 0.5-0.8 0.6-0.8 0.6-0.7 0.8-0.6 0.8-0.6 0.8-0.5 0.8-0.5 0.9-0.3 0.8-0.3 0.9-0.2 1-0.1h0.9l0.9 0.1 0.9 0.1 0.7 0.2 0.8 0.3 0.8 0.4 0.7 0.4 0.7 0.6 0.6 0.5 0.6 0.7 0.4 0.7 0.4 0.8 0.3 0.7 0.2 0.8 0.1 0.9v0.8 1l-0.2 0.9-0.2 0.9-0.3 0.8-0.4 0.8-0.5 0.8-0.5 0.6-0.5 0.7-0.7 0.7-0.7 0.5-0.8 0.6-0.8 0.4-0.8 0.4-0.8 0.2-0.8 0.2-0.9 0.2h-0.9zm-5.4 4.8l-0.7 5.3h-8.5l-4 40.9h-13.1l0.9-9.5-0.8 0.4-0.8 0.4-0.9 0.4-0.9 0.4-1 0.3-0.9 0.3-1 0.2-0.9 0.3-1 0.2-1 0.2-1.1 0.2-1 0.1-1.2 0.1h-0.1l-0.9 0.2-2.3 0.1h-1.6l-0.8-0.1-0.8-0.1-0.7-0.1-0.8-0.2-0.8-0.2-0.7-0.2-0.7-0.2-0.7-0.3-0.7-0.3-0.6-0.3-0.7-0.4-0.6-0.4-0.6-0.5-0.6-0.4-0.7-0.6-0.6-0.6-0.6-0.6-0.5-0.6-0.5-0.7-0.5-0.7-0.3-0.6-0.3-0.8-0.3-0.8-0.2-0.8-0.3-0.8-0.1-0.8v-0.9l-0.1-0.8v-0.9l0.1-1v-0.9l0.2-1 0.2-0.9 0.2-0.9 0.3-0.9 0.4-0.9 0.4-0.7 0.4-0.9 0.5-0.7 0.5-0.7 0.6-0.7 0.6-0.7 0.6-0.6 0.8-0.6 0.7-0.5 0.8-0.7 0.7-0.4 0.7-0.4 0.8-0.4 0.8-0.3 0.7-0.3 0.9-0.3 0.7-0.3 0.9-0.2 0.9-0.2 0.8-0.2 1.8-0.3 0.9-0.1h1 0.7l0.2-0.1h1l2.3 0.1h2.1l1.9 0.1 1.6 0.3 1.3 0.2 1 0.2 0.5 0.2 0.3 0.1 0.4 0.2 0.3 0.3-1.1 8.1-0.4-0.1-0.7-0.1-0.9-0.3-1.1-0.2-1.2-0.4-1.1-0.2-0.9-0.1-0.9-0.1-0.7 0.1h-0.7l-0.9 0.1-0.9 0.2 9.4 8.9 0.3-0.2 0.3-0.2 0.5-0.1 0.5-0.3 0.5-0.3 0.8-0.4 1.9-19.8h-35.7l0.7-7.2h25.9l-0.2-0.2-0.7-1.1-0.8-1-0.4-0.4-0.5-0.4-0.4-0.3-0.5-0.3-0.5-0.2-0.5-0.2-0.5-0.1-0.6-0.2h-0.6l6.1-8.6 1.6 1.1 1.3 1.2 1.4 1.1 1.2 1.3 1.4 1.3 1.3 1.4 1.1 1.3 1 1.3 0.9 1.3 0.8 1.3 0.2 0.4h4.4l-0.6-1.2-0.8-1.5-0.9-1.5-1-1.4-0.9-1.3-1-1.3-1-1.3-1.1-1.1-1.1-1.1-1.2-1.1-1.2-1-1.1-0.9-1.3-1-1.3-0.8-1.2-0.8 9.3-7.7 0.9 0.8 0.9 0.8 1 0.8 0.9 0.8 0.9 0.8 0.8 0.9 0.9 1 0.9 0.9 0.9 1.1 1 1.1 0.9 1.2 0.8 1.2 0.9 1.2 0.8 1.2 0.8 1.3 0.8 1.2 0.7 1.3 0.7 1.3 0.6 1.3 0.7 1.3 0.5 1.3 0.6 1.4 0.3 0.8h3.4zm-31.8 28.6l-6.1-5.7-3.4-3.1-0.4 0.3-0.4 0.4-0.4 0.3-0.4 0.4-0.2 0.2-0.2 0.3-0.2 0.4-0.1 0.4-0.2 0.5-0.1 0.5-0.1 0.6-0.1 0.6-0.1 0.8v0.7l0.1 0.6 0.2 0.7 0.3 0.5 0.3 0.5 0.4 0.4 0.5 0.3 0.4 0.1 0.5 0.2 0.6 0.1 0.6 0.1 0.8 0.1 0.8 0.1h0.9l0.9-0.1 0.5-0.1h0.6l0.5-0.1 0.7-0.1 1.4-0.5zm-209-30.5h169.8l-0.7 7.3h-12.4l-0.9 8.5 0.7 0.6 0.5 0.7 0.9 1.3 0.4 0.8 0.4 0.8 0.2 0.9 0.3 0.9 0.2 1 0.2 0.9 0.1 1.1 0.1 1 0.1 1.2-0.1 1-0.1 1.2-0.1 1.3-0.1 1.1-0.1 1.1-0.3 1-0.2 1-0.3 1-0.3 1-0.4 0.9-0.4 1-0.4 0.8-0.5 0.9-0.5 0.9-0.6 0.8-0.6 0.8-0.6 0.8-0.7 0.8-0.7 0.7-0.7 0.7-0.7 0.7-0.8 0.6-0.8 0.5-0.7 0.6-0.8 0.5-0.8 0.4-0.8 0.4-0.8 0.3-0.9 0.3-0.8 0.3-1.7 0.4-0.9 0.1-1.7 0.1h-2.2l-2-0.1-1.6-0.2-1.5-0.1-0.6-0.2-0.6-0.1-0.5-0.2-0.5-0.1-0.4-0.2-0.3-0.1-0.3-0.2-0.2-0.3 0.9-10 0.3 0.2 0.5 0.3 0.9 0.3 1.2 0.3 1.2 0.3 1.2 0.1 1.1 0.1h1l0.8-0.1 0.7-0.1 0.7-0.3 0.6-0.2 1.3-0.9 0.5-0.5 0.6-0.6 0.4-0.7 0.4-0.7 0.4-0.8 0.4-1 0.3-0.9 0.3-1 0.2-1.2 0.1-1.2 0.2-1.1 0.1-0.9v-1l-0.1-0.9-0.1-0.8-0.2-0.8-0.1-0.6-0.2-0.6-0.2-0.4-0.3-0.3-0.2-0.2-0.2-0.4-0.3-0.2-0.2-0.2-0.3-0.2-0.3-0.2-0.3-0.1-0.4-0.2-0.2-0.1-0.4-0.1h-0.9-1.6l-0.6 0.1-0.7 0.2-0.6 0.3-0.6 0.4-0.6 0.5-0.5 0.5-0.6 0.6-0.5 0.9-0.4 0.8-0.3 0.8-0.3 0.6-0.5 4.4h-12.4l0.5-5.2-0.1-0.6-0.1-0.6-0.1-0.5-0.3-0.4-0.4-0.5-0.4-0.4-0.5-0.2-0.5-0.4-0.7-0.2-0.6-0.1-0.8-0.1h-0.8-0.9l-0.8 0.1-0.4 0.1-0.3 0.1-0.4 0.1-0.3 0.2-0.4 0.2-0.4 0.2-0.3 0.2-0.2 0.3-0.3 0.3-0.3 0.3-0.2 0.3-0.3 0.4-0.3 0.6-0.2 0.7-0.3 0.7-0.3 0.9-0.2 0.9-0.2 1-0.2 1.1-0.2 1.2v1.2l-0.1 1 0.1 1 0.1 1 0.2 0.9 0.3 0.9 0.2 0.3 0.2 0.5 0.2 0.3 0.3 0.4 0.5 0.5 0.5 0.5 0.6 0.4 0.5 0.3 0.7 0.2 0.5 0.2h0.7 0.6 0.7l0.7-0.2 0.8-0.3 0.8-0.3 0.9-0.3 0.9-0.4 1-0.5 1.2-0.5-1.1 10.9-0.3 0.3-0.3 0.2-0.4 0.1-0.3 0.2-1.1 0.3-1.1 0.2-1.4 0.2-1.5 0.2h-1.8l-1.9 0.1-1.8-0.1-0.8-0.1-0.8-0.2-0.8-0.2-0.8-0.2-0.8-0.3-1.5-0.8-0.7-0.4-0.7-0.5-0.7-0.5-0.6-0.6-0.5-0.7-0.7-0.7-1.2-1.4-0.5-0.8-0.5-0.8-0.5-0.8-0.4-0.9-0.3-0.9-0.3-0.9-0.3-0.9-0.2-1-0.2-0.9-0.2-1v-1l-0.1-1v-1-1.1l0.1-1.1 0.1-1.1 0.1-1.1 0.3-1 0.2-1.1 0.4-1 0.3-1 0.4-0.9 0.4-0.9 0.9-1.7 0.6-0.9 0.6-0.8 0.6-0.8 0.7-0.7 0.7-0.7 0.7-0.7 0.8-0.6 0.7-0.6 0.7-0.5 0.7-0.5 0.8-0.5 0.8-0.4 0.8-0.4 0.8-0.2 0.8-0.3 0.8-0.2 0.9-0.2 0.9-0.3 0.8-0.1 0.9-0.1 0.9-0.1h0.9 1.1l1.2 0.1 1 0.1 1 0.1 0.9 0.3 1 0.3 0.9 0.3 0.9 0.5 0.8 0.5 0.8 0.5 0.8 0.6 0.7 0.7 0.6 0.5 0.7 0.9 0.6 0.8 0.6 0.8 0.7-0.9 1-1.1 1.1-1.3 1.4-1.4 1-0.6 0.8-0.4 0.9-0.4 0.9-0.3 0.8-0.3 0.8-0.2 0.8-0.1h0.7 0.9l0.9 0.1 1 0.1 1 0.1 0.5-4.7h-57.5l-1.3 13.3h-16.6l-1.2 0.3-1 0.4-0.9 0.4-0.9 0.4-0.8 0.5-0.7 0.5-0.7 0.5-0.7 0.6-0.4 0.6-0.6 0.7-0.4 0.8-0.4 0.7-0.2 0.8-0.3 0.9-0.1 0.8-0.1 0.9v1.4 0.4l0.2 0.4v0.4l0.2 0.3 0.2 0.4 0.2 0.3 0.2 0.4 0.3 0.3 0.2 0.3 0.3 0.3 0.3 0.3 0.3 0.3 0.5 0.3 0.6 0.4 0.8 0.4 0.9 0.4 0.8 0.2 0.9 0.2 1 0.1 1 0.1 1.1 0.1 0.8-0.1h0.8l0.9-0.1 0.9-0.1 0.8-0.2 0.9-0.1 0.7-0.2 0.8-0.2 0.9-0.3 0.8-0.2 0.7-0.4 0.9-0.3 0.7-0.4 0.8-0.4 0.8-0.4 0.8-0.5 1.1-0.7 0.9-0.6 0.8-0.6 0.8-0.5 0.5-0.6 0.5-0.5 0.1-0.4 0.3-0.3 3.2 12.1-1.6 1.2-1.7 1-1.8 1.1-1.9 1-1.9 0.7-1.8 0.8-1.9 0.6-2 0.6-1.9 0.4-0.5 0.1 13.8 16.7-9.5 7.7-11.3-15-13.2 12.6-8.3-8 16.2-13.7-0.6-0.1-2-0.6-1-0.3-0.9-0.3-0.9-0.4-0.9-0.6-0.9-0.4-0.8-0.6-0.8-0.6-0.9-0.6-0.8-0.9-0.8-0.7-0.7-0.8-0.7-0.8-0.5-0.9-0.5-0.9-0.5-1-0.3-1-0.4-1-0.2-1.1-0.2-1-0.1-1.1v-1.2-1.1l0.1-1.3 0.1-1.3 0.2-1.2 0.3-1.1 0.3-1.2 0.4-1.2 0.5-1.1 0.5-1 0.6-1.1 0.7-0.9 0.6-0.9 0.8-0.9 0.9-0.8 0.8-0.9 1-0.8 1-0.7 1.1-0.6 1.4-0.9 1.5-0.8 1.5-0.6 1.4-0.5 1.3-0.4 1.4-0.3h0.7l0.7-0.1h0.6l0.7-0.1h6.4l0.3-3.9h-77.3l-3.9 40.9h-13.2l1.6-16.3h-12.7l0.8-9.5h12.7l1.5-15.1h-15.1l0.4 0.3 0.3 0.6 0.3 0.5 0.2 0.4 0.3 0.5 0.2 0.6 0.2 0.5 0.1 0.6 0.1 0.5 0.1 0.6 0.2 0.6v0.6 0.7 0.6 0.6l-0.1 0.7-0.2 0.9-0.1 1.1-0.2 0.9-0.1 0.8-0.4 0.9-0.2 0.9-0.4 0.7-0.4 0.8-0.4 0.8-0.4 0.8-0.4 0.6-0.5 0.6-0.5 0.6-0.6 0.7-0.6 0.5-0.6 0.5-0.6 0.5-0.7 0.4-0.6 0.4-0.7 0.4-0.7 0.3-0.6 0.3-0.8 0.3-0.8 0.2-0.7 0.2-0.9 0.2-0.7 0.2h-0.9l-0.9 0.1h-1.8-0.9l-0.1 0.8v0.8l0.1 0.8 0.2 0.8 0.3 0.8 0.3 0.8 0.5 0.7 0.5 0.8 0.5 0.3 0.5 0.4 0.7 0.3 0.8 0.2 0.8 0.2 1 0.2h1l1 0.1 1.6-0.1 1.7-0.1 1.9-0.3 1.9-0.3 1.5-0.3 1.1-0.1 0.6-0.2h0.3l-1 10.1 0.1 0.1-0.1 0.1-0.4 0.1-1.1 0.2-1.7 0.3-1.2 0.3-1.1 0.1-1.1 0.1-1.1 0.1-1 0.1-1.1 0.1h-1.2-1.1-1.7l-1.7-0.1-1.6-0.2-1.5-0.2-1.5-0.3-1.3-0.4-1.2-0.4-1.1-0.5-0.6-0.4-0.5-0.2-0.5-0.3-0.5-0.3-0.4-0.4-0.4-0.4-0.4-0.4-0.4-0.3-0.7-0.8-0.3-0.5-0.2-0.5-0.3-0.4-0.5-1.1-0.1-0.5-0.5-1.5-0.5-1.5-0.2-1.5-0.1-1.6-0.2-1.6 0.1-1.5 0.1-1.6 0.2-1.6h-4.5l0.8-8.6h10.5l0.8 0.1 0.6 0.1 0.7 0.1h0.7l1.7-0.2 0.7-0.1 0.7-0.3 0.7-0.2 0.6-0.3 0.6-0.4 0.5-0.4 0.5-0.5 0.4-0.5 0.4-0.6 0.2-0.7 0.3-0.6 0.2-0.8 0.2-0.8 0.1-0.9 0.1-0.9-0.1-0.8v-0.7l-0.3-0.8-0.1-0.3-0.2-0.3-0.2-0.3-0.1-0.3-0.6-0.4-0.2-0.3-0.3-0.2-0.7-0.4-0.7-0.4h-0.4-0.3l-0.3-0.1h-17.6l0.7-7.3h52.1l-0.3-0.6-0.6-1.3-0.6-1.1-0.7-1.2-0.7-1-0.8-1-0.8-1-0.9-1.1-0.9-0.8-2-1.7-1.1-0.8-1.1-0.8-1.2-0.6-1.2-0.7-1.2-0.6 8.5-7.7 0.8 0.3 0.8 0.5 0.9 0.4 0.9 0.5 0.8 0.6 0.8 0.6 0.8 0.6 0.8 0.6 1 0.9 0.9 0.9 0.9 0.9 1 1 0.8 1 0.9 1.1 0.8 1 0.8 1.2 1.6 2.4 0.7 1.3 0.8 1.3 0.7 1.3 0.7 1.4 0.7 1.5zm38.6 24.1l0.1 1.1v1.2 1.1l-0.1 0.8-0.1 0.7-0.2 0.7-0.2 0.7-0.3 0.7-0.2 0.7-0.3 0.6-0.3 0.7-0.4 0.6-0.5 0.6-0.4 0.7-0.5 0.6-0.5 0.6-0.5 0.5-0.6 0.7-0.7 0.5-0.7 0.5-0.6 0.5-0.7 0.4-0.7 0.5-0.7 0.3-0.7 0.4-0.8 0.3-0.7 0.3-0.8 0.2-0.9 0.2-0.8 0.2-0.8 0.1-0.8 0.2h-0.9l-0.8 0.1h-0.9l-1-0.1h-1l-1-0.1-0.8-0.2-0.9-0.1-0.8-0.2-0.9-0.3-0.7-0.3-0.9-0.2-0.7-0.4-0.7-0.4-0.7-0.4-0.6-0.4-0.6-0.6-0.6-0.5-0.5-0.6-0.6-0.6-0.5-0.6-0.4-0.5-0.3-0.6-0.4-0.7-0.3-0.6-0.3-0.7-0.2-0.6-0.2-0.6-0.1-0.7-0.1-0.8-0.1-0.7v-0.7-0.8l0.1-0.8v-0.7l0.5-2.4 0.2-1.1 0.4-1 0.4-1.1 0.5-0.9 0.4-0.9 0.6-0.9 0.7-0.8 0.6-0.8 0.7-0.7 0.8-0.7 0.8-0.6 0.9-0.5 0.9-0.6 0.9-0.4 0.9-0.4 0.9-0.3 0.9-0.3 1-0.2 2-0.3h1l1.1-0.1h28l-0.7 7.5h-25l-0.8 0.1-0.7 0.1-0.7 0.1-0.6 0.4-0.6 0.3-0.5 0.3-0.4 0.4-0.4 0.5-0.4 0.6-0.3 0.5-0.2 0.7-0.2 0.7-0.1 0.8-0.1 0.8v1.3l0.1 0.4v0.4l0.2 0.3 0.1 0.5 0.2 0.4 0.3 0.4 0.3 0.3 0.2 0.4 0.4 0.3 0.3 0.3 0.4 0.1 0.3 0.3 0.3 0.1h0.5l0.3 0.1 0.6-0.1 1.1-0.1 0.4-0.1 0.4-0.2 0.5-0.1 0.7-0.4 0.3-0.4 0.3-0.2 0.2-0.3 0.2-0.4 0.2-0.4 0.1-0.5 0.2-0.4v-0.4l0.2-1.4 0.1-1.3-0.1-0.5v-0.6l-0.1-0.4-0.1-0.6-0.2-0.4-0.2-0.4-0.1-0.4-0.2-0.4-0.3-0.3-0.3-0.3-0.2-0.2-0.4-0.3h11.3l0.2 0.3 0.3 0.2 0.3 0.3 0.2 0.4 0.2 0.6 0.2 0.4 0.2 0.6 0.1 0.7z"/>
					</g>
					<path id="path5593" fill-rule="evenodd" class="s1" d="m30.7 292.1h260.5v-262.2h-260.5z"/>
					<g id="g5595">
						<path id="path5597" fill-rule="evenodd" class="s2" d="m263.1 159.3v39.2h-33.9l-45.9 46.3-22.3 22.4h-34.4v-34.6l-67.7-70.4v-35.8h35l46.6-49.4 19.9-21 36.7-0.1v36.4zm-28.7-0.2l-38.4-39.4-12.6 0.1-20.6 0.2v6.1l20.6-0.1h12.3l34.7 33.6zm-14.2 38.3l-0.3-33.4h-5.9v33.1l-30.6 31.6-19.7 20.2 0.6 4 19.1-18.9zm-56.8 34.6l0.6 4 19.3-19 19.8-19.6-0.3-33.4h-5.9v33.1l-13.6 14.3zm-1.8-37.3l21.6-21.2 11.8-11.6-11.8-12.5-20.3-21.5-22.5 22-10.9 10.8 10.9 11.5zm-0.7 26.5v-6l-20.5 0.1h-12.4l-51.5-50.5-4 0.6 55.3 56.1 12.6-0.1zm-71.6-56.1l38.4 39.4 12.7-0.2 20.5-0.2v-6h-20.5-12.4l-34.7-33.6zm70.3-76.8l-19.3 19-19.8 19.6 0.3 33.3h5.9v-33.1l13.6-14.2 19.8-20.6zm-56.1 38.6l0.2 33.4h6v-33.2l30.7-31.5 19.5-20.2-0.5-4-19 18.8zm147.5 32.1l-55.2-56.2-12.6 0.2-20.6 0.1v6h20.6l12.3-0.1 51.6 50.5z"/>
					</g>
					<g id="g5599">
					</g>
					<g id="g5603">
					</g>
					<g id="g5607">
					</g>
					<g id="g5611">
					</g>
					<g id="g5615">
					</g>
					<g id="g5619">
					</g>
					<g id="g5623">
					</g>
					<g id="g5627">
					</g>
					<g id="g5631">
					</g>
					<g id="g5635">
					</g>
					<g id="g5639">
					</g>
					<g id="g5643">
					</g>
					<g id="g5647">
					</g>
					<g id="g5651">
					</g>
					<g id="g5655">
					</g>
					<g id="g5659">
					</g>
					<g id="g5663">
					</g>
					<g id="g5669">
					</g>
					<g id="g5673">
					</g>
					<g id="g5677">
					</g>
					<g id="g5681">
					</g>
					<g id="g5685">
					</g>
					<g id="g5689">
					</g>
					<g id="g5693">
					</g>
					<g id="g5697">
					</g>
					<g id="g5701">
					</g>
					<g id="g5705">
					</g>
					<g id="g5709">
					</g>
					<g id="g5713">
					</g>
					<g id="g5717">
					</g>
					<g id="g5721">
					</g>
					<g id="g5725">
					</g>
					<g id="g5729">
					</g>
					<g id="g5733">
					</g>
					<g id="g5737">
					</g>
					<g id="g5741">
					</g>
					<g id="g5745">
					</g>
					<g id="g5751">
					</g>
					<g id="g5755">
					</g>
					<g id="g5759">
					</g>
					<g id="g5763">
					</g>
					<g id="g5767">
					</g>
					<g id="g5771">
					</g>
					<g id="g5775">
					</g>
					<path id="path5779" fill-rule="evenodd" class="s1" d="m-3365.9-37.5h722.7v261.3h-722.7z"/>
					<path id="path5781" fill-rule="evenodd" class="s0" d="m-3356.3-24.7h178v179.2h-178z"/>
					<path id="path5783" fill-rule="evenodd" class="s2" d="m-3356.3 158.9h703.6v52.1h-703.6z"/>
					<path id="path5785" fill-rule="evenodd" class="s0" d="m-3173.7-24.4h521v178.9h-521z"/>
					<g id="g5787">
						<path id="path5789" fill-rule="evenodd" class="s1" d="m-2687.1 93.1l-4.6 24.4h-7.5l0.5-2.8h-0.1l-0.2 0.4-0.4 0.5-0.3 0.3-0.4 0.3-0.4 0.3-0.4 0.3-0.4 0.2-0.2 0.2-0.2 0.1-0.4 0.2-0.5 0.2-0.4 0.1-0.4 0.1-0.4 0.1-0.5 0.1-0.4 0.1h-0.4-0.2l-0.2 0.1h-0.3l-0.6-0.1h-0.5l-0.6-0.1-0.5-0.1-0.5-0.1-0.5-0.2-0.4-0.2-0.5-0.2-0.4-0.3-0.4-0.2-0.4-0.4-0.4-0.3-0.3-0.4-0.4-0.4-0.3-0.4-0.3-0.5-0.3-0.5-0.2-0.5-0.2-0.5-0.2-0.5-0.2-0.6-0.1-0.5-0.1-0.6-0.1-0.6-0.1-0.5v-0.6l-0.1-0.6v-0.6l0.1-0.6v-0.6l0.1-0.7 0.1-0.6 0.1-0.7 0.2-0.6 0.2-0.6 0.1-0.6 0.3-0.7 0.2-0.5 0.3-0.6 0.3-0.6 0.2-0.6 0.4-0.5 0.3-0.5 0.4-0.6 0.4-0.5 0.4-0.5 0.4-0.5 0.5-0.5 0.4-0.5 0.5-0.4 0.4-0.4 0.5-0.4 0.5-0.3 0.5-0.4 0.5-0.3 0.5-0.2 0.6-0.2 0.5-0.2 0.5-0.2 0.6-0.1 0.6-0.1 0.6-0.1 0.5-0.1h1.2l0.2 0.1h0.4l0.4 0.1 0.4 0.1 0.3 0.1 0.4 0.1 0.4 0.1 0.3 0.2 0.4 0.2 0.4 0.2 0.3 0.2 0.3 0.3 0.2 0.2 0.3 0.3 0.2 0.3 0.3 0.4 0.2 0.3 0.4-2.4zm-9.4 10.6v-0.5l-0.2-0.5v-0.4l-0.2-0.5-0.3-0.4-0.1-0.1-0.1-0.3-0.2-0.1-0.1-0.2-0.2-0.2-0.2-0.1-0.2-0.1-0.4-0.2-0.2-0.1-0.2-0.1h-0.3l-0.2-0.1h-0.3-0.5-0.6l-0.4 0.1h-0.1-0.3l-0.2 0.1-0.3 0.1-0.2 0.1-0.3 0.1-0.2 0.2-0.2 0.1-0.3 0.2-0.4 0.3-0.4 0.4-0.4 0.4-0.3 0.4-0.3 0.5-0.2 0.5-0.3 0.4-0.2 0.5-0.1 0.6-0.2 0.5-0.1 0.6v0.6 0.5 0.5l0.1 0.4 0.2 0.5 0.2 0.4 0.2 0.4 0.2 0.2 0.1 0.2 0.1 0.2 0.2 0.1 0.1 0.2 0.2 0.1 0.2 0.1 0.2 0.1 0.2 0.1 0.3 0.1h0.2l0.2 0.1h0.2l0.6 0.1h0.2 0.6l0.5-0.1 0.3-0.1h0.3l0.2-0.1 0.3-0.1 0.2-0.1 0.2-0.1 0.3-0.1 0.2-0.2 0.4-0.3 0.4-0.4 0.4-0.4 0.3-0.4 0.3-0.5 0.3-0.4 0.2-0.6 0.2-0.5 0.2-0.5v-0.6l0.2-0.5v-0.6zm-17.7-17.3l-0.3 0.4-0.4 0.4-0.4 0.3-0.3 0.3-0.5 0.3-0.4 0.2-0.4 0.1-0.4 0.1-0.4 0.1h-0.4-0.5l-0.3-0.1-0.4-0.1-0.4-0.1-0.3-0.2-0.3-0.3-0.3-0.3-0.2-0.3-0.3-0.4-0.1-0.4-0.2-0.4-0.1-0.4v-0.4-0.5-0.5l0.1-0.4v-0.5l0.2-0.5 0.2-0.5 0.3-0.4 0.1-0.4 0.4-0.5 0.2-0.3 0.4-0.4 0.4-0.3 0.4-0.3 0.4-0.3 0.4-0.2 0.4-0.1 0.4-0.1 0.5-0.1h0.4 0.4l0.4 0.1 0.4 0.1 0.3 0.2 0.3 0.2 0.3 0.2 0.3 0.3 0.3 0.4 0.2 0.3 0.2 0.4 0.1 0.4 0.1 0.4v0.4 0.5 0.5 0.5l-0.1 0.4-0.2 0.5-0.2 0.5-0.2 0.4-0.2 0.4zm-13 31.1l4.5-24.4h7.5l-4.5 24.4zm2.6-39.5l-7.2 39.5h-7.6l0.5-2.8h-0.1l-0.3 0.4-0.3 0.5-0.4 0.3-0.3 0.3-0.4 0.3-0.4 0.3-0.4 0.2-0.2 0.2-0.2 0.1-0.5 0.2-0.4 0.2-0.4 0.1-0.4 0.1-0.5 0.1-0.4 0.1-0.4 0.1h-0.5-0.1l-0.2 0.1h-0.3l-0.6-0.1h-0.6l-0.5-0.1-0.5-0.1-0.5-0.1-0.5-0.2-0.5-0.2-0.4-0.2-0.5-0.3-0.4-0.2-0.3-0.4-0.4-0.3-0.4-0.4-0.3-0.4-0.3-0.4-0.3-0.5-0.3-0.5-0.2-0.5-0.3-0.5-0.1-0.5-0.2-0.6-0.1-0.5-0.2-0.6-0.1-0.6v-0.5l-0.1-0.6v-0.6-0.6-0.6l0.1-0.6 0.1-0.7 0.1-0.6 0.1-0.7 0.1-0.6 0.2-0.6 0.2-0.6 0.3-0.7 0.2-0.5 0.2-0.6 0.3-0.6 0.3-0.6 0.3-0.5 0.4-0.5 0.3-0.6 0.4-0.5 0.4-0.5 0.5-0.5 0.4-0.5 0.5-0.5 0.4-0.4 0.5-0.4 0.5-0.4 0.5-0.3 0.5-0.4 0.5-0.3 0.5-0.2 0.6-0.2 0.5-0.2 0.5-0.2 0.6-0.1 0.5-0.1 0.6-0.1 0.6-0.1h1.2l0.2 0.1h0.4l0.7 0.2 0.4 0.1 0.4 0.1 0.4 0.1 0.3 0.2 0.4 0.2 0.3 0.2 0.3 0.2 0.6 0.5 0.3 0.3 0.2 0.3 0.3 0.4 0.1 0.3 3.3-17.5zm-12.2 25.7l-0.1-0.5-0.1-0.5-0.1-0.4-0.2-0.5-0.2-0.4-0.1-0.1-0.1-0.3-0.2-0.1-0.1-0.2-0.2-0.2-0.2-0.1-0.2-0.1-0.2-0.1-0.2-0.1-0.2-0.1-0.2-0.1h-0.3l-0.2-0.1h-0.3-0.5-0.6l-0.5 0.1h-0.1-0.2l-0.3 0.1-0.2 0.1-0.3 0.1-0.2 0.1-0.2 0.2-0.2 0.1-0.2 0.2-0.5 0.3-0.4 0.4-0.4 0.4-0.3 0.4-0.3 0.5-0.3 0.5-0.2 0.4-0.2 0.5-0.2 0.6-0.1 0.5-0.1 0.6-0.1 0.6v0.5l0.1 0.5 0.1 0.4 0.1 0.5 0.2 0.4 0.3 0.4 0.1 0.2 0.1 0.2 0.2 0.2 0.2 0.1 0.1 0.2 0.2 0.1 0.2 0.1 0.2 0.1 0.2 0.1 0.2 0.1h0.2l0.3 0.1h0.3l0.2 0.1h0.2 0.3 0.6l0.4-0.1h0.1l0.3-0.1h0.2l0.3-0.1 0.2-0.1 0.3-0.1 0.2-0.1 0.2-0.1 0.3-0.2 0.4-0.3 0.4-0.4 0.4-0.4 0.3-0.4 0.3-0.5 0.3-0.4 0.2-0.6 0.2-0.5 0.1-0.5 0.2-0.6v-0.5l0.1-0.6zm-20.5-5.8v0.4l0.1 0.5v1l-0.1 0.5v1l-0.1 0.6-0.1 0.5-2.8 15h-7.5l2.2-11.8v-0.2-0.1-0.1l0.1-0.2v-0.2l0.1-0.2v-0.2l0.1-0.3v-0.2-0.2l0.1-0.5v-0.4-1-0.3l-0.1-0.4-0.1-0.3-0.1-0.3v-0.2l-0.1-0.2-0.1-0.1-0.1-0.1-0.1-0.1-0.1-0.1-0.1-0.1-0.2-0.1-0.3-0.1-0.4-0.1-0.4-0.1h-0.7l-0.5 0.1h-0.3l-0.2 0.1-0.3 0.1h-0.2l-0.2 0.1-0.2 0.1-0.2 0.2-0.2 0.1-0.2 0.1-0.2 0.2-0.1 0.2-0.2 0.2-0.1 0.2-0.3 0.4-0.2 0.5-0.3 0.4-0.2 0.5-0.2 0.5-0.2 0.5-0.1 0.6-0.1 0.5-2.3 12.6h-7.5l4.4-24.3h7.6l-0.6 3.1h0.1l0.4-0.5 0.5-0.5 0.4-0.5 0.4-0.3 0.5-0.4 0.4-0.3 0.4-0.3 0.5-0.2 0.4-0.2 0.5-0.2 0.5-0.2 0.5-0.1 0.5-0.1h0.5l0.5-0.1h1.1l0.5 0.1h0.5l0.4 0.1 0.4 0.1 0.5 0.1 0.3 0.2 0.4 0.1 0.3 0.2 0.4 0.2 0.2 0.3 0.6 0.5 0.2 0.3 0.2 0.3 0.2 0.3 0.1 0.4 0.2 0.3 0.1 0.4 0.1 0.4 0.1 0.4 0.1 0.5zm-23.9-16.3l-6.6 35.8h-8.1l6.7-35.8zm-24.7-3.4l0.3 0.2-1.3 7.4h-0.2l-0.2-0.1-0.1-0.1-0.2-0.1-0.2-0.1-0.3-0.1-0.2-0.1h-0.2l-0.2-0.1h-0.2l-0.3-0.1h-0.2l-0.4 0.1h-0.3l-0.3 0.1-0.3 0.1-0.3 0.1-0.2 0.2-0.2 0.2-0.2 0.2-0.2 0.3-0.2 0.3-0.2 0.4-0.1 0.3-0.2 0.4-0.1 0.5-0.1 0.4-0.1 0.5-0.7 3.9h5.2l-1.3 7.2h-5.2l-3.2 17.2h-7.5l3.2-17.2h-2.7l1.3-7.2h2.7l0.6-3.1 0.1-0.9 0.2-0.9 0.2-0.9 0.3-0.9 0.1-0.4 0.2-0.4 0.1-0.4 0.2-0.4 0.2-0.4 0.2-0.4 0.3-0.4 0.2-0.4 0.2-0.2 0.1-0.2 0.2-0.2 0.1-0.2 0.2-0.2 0.2-0.2 0.2-0.3 0.2-0.1 0.4-0.5 0.5-0.5 0.4-0.4 0.5-0.4 0.5-0.3 0.5-0.3 0.5-0.3 0.5-0.3 0.6-0.2 0.5-0.2 0.5-0.1 0.5-0.2 0.6-0.1 0.5-0.1h0.6 0.9 0.4l0.4 0.1h0.4l0.4 0.1 0.3 0.2zm-21.2 23.5l0.1 0.6-0.1 0.7v0.7l-0.1 0.8-0.3 1.5-0.2 0.8-0.2 0.7-0.2 0.7-0.2 0.6-0.4 0.7-0.3 0.6-0.3 0.6-0.4 0.6-0.3 0.6-0.5 0.5-0.4 0.6-0.5 0.4-0.5 0.5-1 0.9-0.6 0.4-0.6 0.4-0.5 0.4-1.2 0.6-0.5 0.3-0.6 0.2-0.6 0.2-0.6 0.2-0.6 0.2-1.3 0.3h-0.1-0.5l-0.6 0.1h-0.6l-0.7 0.1-0.6-0.1h-0.6l-0.6-0.1h-0.6l-0.6-0.2-0.5-0.1-0.6-0.2-0.5-0.1-0.5-0.3-0.5-0.2-0.5-0.3-0.4-0.3-0.5-0.3-0.4-0.4-0.5-0.4-0.4-0.4-0.4-0.4-0.3-0.5-0.3-0.4-0.3-0.5-0.2-0.6-0.2-0.5-0.2-0.5-0.2-0.6-0.1-0.6-0.1-0.7v-0.6-0.7-0.7-0.7l0.1-0.8 0.1-0.7 0.2-0.8 0.2-0.8 0.2-0.7 0.2-0.7 0.3-0.6 0.3-0.7 0.3-0.6 0.7-1.2 0.4-0.6 0.4-0.6 0.4-0.5 0.5-0.5 0.5-0.5 0.5-0.4 0.5-0.5 0.6-0.4 0.5-0.4 0.7-0.3 0.5-0.4 0.6-0.3 0.6-0.2 1.2-0.5 0.6-0.2 0.6-0.2 0.6-0.1 0.6-0.1 0.1-0.1h0.5l0.6-0.1h0.7 0.6v-0.1h0.7l0.6 0.1h0.6l0.5 0.1 0.6 0.1 0.6 0.2 0.5 0.2 0.6 0.2 0.5 0.2 0.5 0.3 0.9 0.5 0.5 0.4 0.4 0.3 0.4 0.4 0.4 0.4 0.4 0.5 0.3 0.4 0.4 0.5 0.2 0.5 0.3 0.5 0.2 0.6 0.2 0.6 0.1 0.5 0.1 0.7 0.1 0.6zm-8 1.9l-0.1-0.5-0.1-0.5-0.1-0.4-0.2-0.5-0.2-0.4-0.1-0.1-0.2-0.3-0.1-0.1-0.1-0.2-0.2-0.1-0.2-0.2-0.2-0.1-0.2-0.1-0.2-0.1-0.2-0.1-0.3-0.1h-0.2l-0.3-0.1h-0.2-0.6-0.5l-0.5 0.1h-0.1l-0.2 0.1h-0.3l-0.2 0.1-0.3 0.1-0.2 0.2-0.3 0.1-0.2 0.1-0.2 0.2-0.4 0.3-0.5 0.4-0.3 0.4-0.3 0.4-0.4 0.5-0.2 0.5-0.2 0.4-0.2 0.5-0.2 0.6-0.1 0.5-0.1 0.6v0.6 0.5 0.5l0.1 0.4 0.1 0.5 0.2 0.4 0.2 0.4 0.3 0.4 0.2 0.2 0.1 0.1 0.2 0.2 0.2 0.1 0.1 0.1 0.2 0.1 0.3 0.1 0.2 0.1h0.2l0.3 0.1 0.2 0.1h0.2 0.3 0.3 0.6l0.4-0.1h0.1l0.3-0.1h0.2l0.3-0.1 0.2-0.1 0.3-0.1 0.2-0.1 0.2-0.1 0.2-0.2 0.5-0.3 0.4-0.4 0.7-0.8 0.3-0.5 0.2-0.4 0.2-0.5 0.3-0.6 0.1-0.5 0.1-0.6 0.1-0.5 0.1-0.6zm-29.1-10.7l-12.7 11.2 8.8 13.1h-10.5l-6.4-9.9-1.8 9.9h-7.5l7.2-39.4h7.6l-4.4 23.9 9.4-8.8zm-32 5.2l0.1 0.5v0.4l-0.1 0.6v0.4 0.6l-0.1 0.5-0.1 0.6-0.1 0.5-2.7 15h-7.6l2.2-11.9 0.1-0.1v-0.1-0.1-0.2l0.1-0.2v-0.2l0.1-0.3v-0.2-0.2l0.1-0.2v-0.3-0.2l0.1-0.4v-0.4-0.3-0.3l-0.1-0.4v-0.3l-0.1-0.4-0.1-0.3-0.1-0.1v-0.2l-0.1-0.1-0.1-0.1-0.1-0.1-0.2-0.1-0.1-0.1-0.1-0.1-0.3-0.2-0.4-0.1h-0.4-0.7-0.3-0.3l-0.3 0.1h-0.2l-0.2 0.1-0.2 0.1-0.3 0.1-0.2 0.1-0.2 0.1-0.2 0.2-0.1 0.1-0.2 0.2-0.3 0.3-0.2 0.3-0.3 0.4-0.2 0.5-0.2 0.4-0.2 0.5-0.2 0.5-0.2 0.5-0.1 0.6-0.1 0.5-2.3 12.6h-7.6l4.5-24.3h7.6l-0.7 3.1h0.2l0.4-0.5 0.8-1 0.5-0.4 0.4-0.3 0.4-0.3 0.5-0.3 0.4-0.3 1-0.3 0.4-0.2 0.6-0.1 0.4-0.1 0.6-0.1h0.5 1 0.6l0.4 0.1 0.5 0.1 0.4 0.1 0.4 0.1 0.4 0.1 0.4 0.2 0.3 0.2 0.4 0.2 0.2 0.2 0.3 0.3 0.2 0.2 0.3 0.3 0.2 0.3 0.1 0.4 0.2 0.3 0.1 0.4 0.1 0.4 0.2 0.4 0.1 0.4v0.4l0.1 0.5zm-33.4-5.3h7.5l-4.5 24.4h-7.5l0.5-2.8h-0.1l-0.3 0.5-0.4 0.4-0.3 0.3-0.3 0.3-0.4 0.3-0.4 0.3-0.4 0.3-0.3 0.1-0.2 0.1-0.4 0.2-0.4 0.2-0.4 0.1-0.5 0.2-0.4 0.1h-0.4l-0.4 0.1h-0.5l-0.1 0.1h-0.2-0.3-0.6l-0.6-0.1-0.5-0.1-0.5-0.1-0.6-0.1-0.4-0.2-0.5-0.2-0.4-0.2-0.5-0.3-0.4-0.2-0.4-0.4-0.3-0.3-0.4-0.4-0.6-0.8-0.3-0.5-0.3-0.5-0.2-0.5-0.3-0.5-0.2-0.5-0.1-0.6-0.2-0.5-0.1-0.5-0.1-0.6-0.1-0.6v-0.5-0.7-0.6-0.6l0.1-0.6 0.1-0.7 0.1-0.6 0.1-0.6 0.1-0.7 0.2-0.6 0.2-0.6 0.2-0.6 0.3-0.6 0.2-0.6 0.3-0.6 0.3-0.5 0.3-0.6 0.4-0.5 0.3-0.6 0.4-0.5 0.4-0.5 0.4-0.5 0.5-0.5 0.5-0.4 0.4-0.5 0.5-0.4 0.5-0.4 0.5-0.3 0.5-0.4 0.5-0.3 0.5-0.2 0.5-0.2 0.6-0.2 0.5-0.2 0.6-0.1 0.5-0.1 0.6-0.1 0.6-0.1h1.2l0.2 0.1h0.3l0.4 0.1 0.4 0.1 0.4 0.1 0.4 0.1 0.3 0.2 0.4 0.1 0.3 0.2 0.4 0.2 0.3 0.2 0.3 0.3 0.3 0.3 0.3 0.3 0.2 0.2 0.2 0.4 0.3 0.3zm-2 10.6v-0.5l-0.1-0.5-0.1-0.4-0.2-0.4-0.2-0.5-0.1-0.2-0.2-0.2-0.1-0.1-0.2-0.2-0.1-0.1-0.2-0.2-0.2-0.1-0.2-0.1-0.2-0.1-0.2-0.1-0.3-0.1h-0.2-0.3l-0.2-0.1h-0.3-0.3-0.5l-0.5 0.1h-0.1-0.2l-0.3 0.1-0.2 0.1-0.3 0.1-0.2 0.2-0.3 0.1-0.2 0.1-0.2 0.2-0.4 0.3-0.4 0.4-0.4 0.4-0.4 0.4-0.2 0.5-0.3 0.5-0.2 0.5-0.2 0.4-0.2 0.6-0.1 0.5-0.1 0.6-0.1 0.5v0.6l0.1 0.5 0.1 0.5 0.1 0.4 0.2 0.4 0.2 0.4 0.1 0.2 0.2 0.2 0.2 0.2 0.1 0.1 0.2 0.2 0.2 0.1 0.1 0.1 0.3 0.1 0.2 0.1 0.2 0.1h0.2l0.3 0.1h0.2l0.5 0.1h0.3 0.6l0.4-0.1h0.1l0.3-0.1h0.2l0.3-0.1 0.2-0.1 0.3-0.1 0.2-0.1 0.2-0.1 0.2-0.2 0.4-0.3 0.5-0.4 0.3-0.4 0.4-0.4 0.3-0.4 0.2-0.5 0.3-0.5 0.1-0.6 0.2-0.5 0.2-0.6v-0.5-0.6zm-20.1-16.6l0.1 0.5v1l-0.1 1.1-0.1 0.7-0.1 0.6-0.1 0.6-0.1 0.6-0.2 0.5-0.2 0.6-0.2 0.5-0.2 0.5-0.3 0.5-0.2 0.5-0.3 0.5-0.4 0.4-0.3 0.4-0.4 0.4-0.4 0.4-0.5 0.3-0.4 0.3-0.6 0.3v0.1h0.4l0.4 0.1 0.4 0.1 0.3 0.1 0.3 0.2 0.3 0.1 0.3 0.2 0.3 0.2 0.3 0.2 0.2 0.2 0.3 0.2 0.2 0.2 0.2 0.3 0.1 0.3 0.2 0.2 0.4 0.9 0.1 0.7 0.1 0.4 0.1 0.3v0.4l0.1 0.4v0.8l-0.1 0.8-0.1 0.9-0.1 0.9-0.1 0.7-0.2 0.7-0.2 0.6-0.2 0.6-0.2 0.6-0.3 0.5-0.2 0.6-0.4 0.5-0.3 0.4-0.3 0.5-0.4 0.4-0.3 0.4-0.5 0.3-0.4 0.4-0.5 0.3-0.4 0.3-0.5 0.2-0.5 0.3-0.5 0.2-0.5 0.2-0.5 0.2-0.5 0.2-0.5 0.2-0.5 0.1-0.5 0.1-0.6 0.1-0.4 0.2h-0.6l-0.5 0.1h-0.5-0.6-0.5-12.5l6.6-35.8h12.1l0.5 0.1h0.5l0.4 0.1 0.5 0.1h0.4l0.5 0.2 0.4 0.1 0.3 0.1 0.4 0.2 0.4 0.2 0.3 0.1 0.3 0.2 0.3 0.3 0.3 0.2 0.3 0.3 0.3 0.2 0.2 0.3 0.2 0.4 0.2 0.3 0.2 0.4 0.1 0.3 0.1 0.5 0.1 0.4zm-8.2 18.1l-0.1-0.2v-0.2-0.2l-0.1-0.2-0.1-0.2-0.1-0.2v-0.1l-0.2-0.1-0.1-0.2-0.1-0.1-0.2-0.1-0.3-0.1-0.3-0.2-0.4-0.1-0.3-0.1-0.4-0.1-0.4-0.1h-0.4l-0.4-0.1h-3l-1.4 7.8h1 0.1 0.1 1.3 0.3 0.3 0.3l0.4-0.1h0.3l0.4-0.2 0.8-0.2 0.3-0.1 0.4-0.2 0.3-0.2 0.4-0.2 0.3-0.2 0.3-0.3 0.2-0.4 0.2-0.3 0.2-0.4 0.1-0.5 0.1-0.5 0.1-0.6 0.1-0.5zm0.4-14v-0.4l-0.1-0.4-0.1-0.1v-0.2l-0.1-0.2v-0.1l-0.2-0.1-0.1-0.1-0.1-0.1-0.1-0.1-0.3-0.1-0.3-0.2-0.3-0.1-0.3-0.1h-0.4l-0.3-0.1h-0.3l-0.4-0.1h-1.3l-1.3 7h0.9 0.2 0.3 0.1 0.4l0.4-0.1 0.3-0.1 0.4-0.1 0.3-0.1 0.4-0.1 0.4-0.2h0.1l0.2-0.1 0.2-0.1 0.1-0.1 0.2-0.2 0.1-0.1 0.1-0.2 0.1-0.2 0.2-0.3 0.2-0.4 0.2-0.5 0.1-0.6zm-37.6-13.2h7.4l-7.2 39.4h-7.5zm-15.3 15.1h7.5l-4.5 24.4h-7.4l0.4-2.8h-0.1l-0.3 0.5-0.3 0.4-0.4 0.3-0.3 0.3-0.4 0.3-0.4 0.3-0.4 0.3-0.2 0.1-0.2 0.1-0.4 0.2-0.5 0.2-0.4 0.1-0.4 0.2h-0.5l-0.4 0.1-0.4 0.1h-0.4-0.2l-0.1 0.1h-0.4l-0.6-0.1h-0.5l-0.6-0.1-0.5-0.1-0.5-0.1-0.5-0.2-0.4-0.2-0.5-0.2-0.4-0.3-0.4-0.2-0.4-0.4-0.4-0.3-0.3-0.4-0.4-0.4-0.3-0.4-0.3-0.5-0.3-0.5-0.4-1-0.2-0.5-0.2-0.6-0.1-0.5-0.2-0.5-0.1-0.6v-0.6l-0.1-0.5v-1.3l0.1-0.6v-0.6l0.1-0.7 0.1-0.6 0.1-0.6 0.2-0.7 0.2-0.6 0.2-0.6 0.1-0.6 0.3-0.6 0.3-0.6 0.3-0.6 0.2-0.5 0.4-0.6 0.3-0.5 0.4-0.6 0.3-0.5 0.5-0.5 0.4-0.5 0.4-0.5 0.5-0.4 0.5-0.5 0.4-0.4 0.5-0.4 0.5-0.3 0.5-0.4 0.5-0.3 0.5-0.2 0.6-0.2 0.5-0.2 0.6-0.2 0.5-0.1 0.6-0.1 0.5-0.1 0.6-0.1h1.2l0.2 0.1h0.4l0.8 0.2 0.3 0.1 0.4 0.1 0.4 0.2 0.4 0.1 0.3 0.2 0.3 0.2 0.4 0.2 0.3 0.3 0.3 0.3 0.2 0.3 0.3 0.2 0.2 0.4 0.2 0.3zm-1.9 10.6l-0.1-0.5-0.1-0.5-0.1-0.4-0.2-0.4-0.2-0.5-0.1-0.2-0.1-0.2-0.3-0.3-0.2-0.1-0.2-0.2-0.2-0.1-0.2-0.1-0.2-0.1-0.2-0.1-0.2-0.1h-0.3-0.2l-0.3-0.1h-0.2-0.4-0.5l-0.4 0.1h-0.1-0.3l-0.3 0.1-0.2 0.1-0.2 0.1-0.3 0.1-0.2 0.2-0.2 0.1-0.3 0.2-0.4 0.3-0.4 0.4-0.3 0.4-0.4 0.4-0.3 0.5-0.3 0.5-0.2 0.5-0.2 0.4-0.2 0.6-0.1 0.5-0.1 0.6v0.5 0.6 0.5l0.1 0.5 0.2 0.4 0.2 0.4 0.2 0.4 0.1 0.2 0.2 0.2 0.1 0.2 0.1 0.1 0.2 0.2 0.2 0.1 0.2 0.1 0.2 0.1 0.2 0.1 0.2 0.1h0.2l0.3 0.1h0.2l0.6 0.1h0.2 0.6l0.5-0.1 0.3-0.1h0.3l0.2-0.1 0.2-0.1 0.3-0.1 0.2-0.1 0.2-0.1 0.3-0.2 0.4-0.3 0.4-0.4 0.4-0.4 0.3-0.4 0.3-0.4 0.2-0.5 0.3-0.5 0.2-0.6 0.3-1.1 0.1-0.6v-0.5zm-18-10.9h1.5l-1.5 8.2h-0.2l-0.1-0.1-0.3-0.1-0.3-0.2-0.3-0.1h-0.3l-0.3-0.1-0.3-0.1h-0.3-0.3-0.4-0.8l-0.3 0.1h-0.3l-0.3 0.1-0.4 0.1-0.3 0.1-0.3 0.1-0.3 0.2-0.2 0.1-0.3 0.2-0.2 0.2-0.2 0.2-0.3 0.2-0.1 0.3-0.2 0.2-0.4 0.6-0.3 0.5-0.3 0.7-0.2 0.6-0.3 0.7-0.2 0.7-0.2 0.7-0.1 0.8-1.9 9.7h-7.4l4.5-24.3h7.5l-0.8 4h0.1l0.4-0.5 0.4-0.5 0.4-0.5 0.4-0.5 0.4-0.3 0.5-0.4 0.5-0.3 1-0.5 0.5-0.2 0.5-0.2 0.5-0.1 0.5-0.2h0.5l0.6-0.1zm-18.2 7.4h-4.3l-3.1 17.2h-7.5l3.1-17.2h-2.4l1.3-7.1h2.4l1.4-7.4h7.5l-1.3 7.4h4.2zm-17.5-1.9v0.5 0.4 0.6l-0.1 0.4v0.6 0.5l-0.2 1.1-2.8 15h-7.5l2.2-11.9v-0.1-0.1l0.1-0.2v-0.1-0.2-0.2l0.1-0.3v-0.2l0.1-0.2v-0.3l0.1-0.2v-0.3-0.3-0.4-0.3-0.4-0.3l-0.1-0.3-0.1-0.4-0.1-0.3v-0.1l-0.1-0.2-0.1-0.1-0.1-0.1-0.1-0.1-0.1-0.2h-0.1l-0.2-0.1-0.3-0.2-0.3-0.1h-0.5-0.7-0.3-0.2l-0.3 0.1h-0.2l-0.5 0.2-0.2 0.1-0.2 0.1-0.2 0.1-0.2 0.1-0.2 0.2-0.2 0.2-0.1 0.2-0.2 0.1-0.1 0.2-0.3 0.5-0.3 0.4-0.2 0.5-0.2 0.5-0.2 0.5-0.1 0.5-0.2 0.6-0.1 0.5-2.3 12.6h-7.5l4.5-24.4h7.5l-0.6 3.1h0.1l0.4-0.5 0.9-0.9 0.4-0.4 0.5-0.3 0.4-0.4 0.4-0.3 0.5-0.2 0.9-0.4 0.5-0.1 0.5-0.1 0.5-0.1 0.5-0.1h0.5 1.1 0.5 0.5l0.4 0.1 0.5 0.2 0.4 0.1 0.4 0.1 0.3 0.1 0.4 0.3 0.3 0.1 0.3 0.3 0.2 0.3 0.3 0.2 0.2 0.3 0.2 0.3 0.2 0.4 0.3 0.7 0.1 0.4 0.1 0.4 0.1 0.4 0.1 0.4v0.5zm-26.3 2.5v0.7 0.6 0.7 0.7l-0.1 0.7-0.1 0.8-0.1 0.7-0.2 0.9h-15.8l-0.1 0.7v0.6l-0.1 0.5 0.1 0.6v0.4l0.2 0.5 0.1 0.4 0.1 0.2 0.2 0.1 0.1 0.3 0.1 0.1 0.1 0.1 0.2 0.2 0.3 0.2 0.2 0.1 0.2 0.1 0.3 0.1 0.2 0.1h0.2l0.2 0.1h0.5 1.5 0.2l0.3-0.1 0.2-0.1 0.1-0.1h0.2l0.3-0.1 0.2-0.2 0.2-0.2 0.3-0.1 0.2-0.2 0.2-0.3 0.3-0.2 0.2-0.3 0.2-0.3h7.2l-0.2 0.6-0.3 0.5-0.2 0.5-0.2 0.5-0.3 0.4-0.3 0.5-0.3 0.4-0.3 0.4-0.4 0.4-0.3 0.3-0.4 0.4-0.4 0.3-0.3 0.3-0.8 0.6-0.5 0.3-0.4 0.2-0.5 0.2-0.4 0.2-0.4 0.2-0.4 0.2-0.5 0.2-0.4 0.1-0.5 0.2-0.4 0.1-0.4 0.1h-0.1-0.4l-0.5 0.2h-0.4-0.5-0.4l-0.5 0.1-0.6-0.1h-0.7-0.6l-0.6-0.2-0.5-0.1-0.6-0.1-0.5-0.2-0.5-0.2-0.5-0.1-1-0.6-0.4-0.3-0.8-0.7-0.5-0.3-0.3-0.4-0.4-0.5-0.3-0.4-0.3-0.5-0.2-0.5-0.2-0.5-0.2-0.5-0.2-0.6-0.1-0.6-0.1-0.6-0.1-0.6v-0.7-0.7-0.7l0.1-0.7 0.1-0.8 0.1-0.8 0.2-0.7 0.2-0.7 0.2-0.8 0.2-0.6 0.2-0.7 0.3-0.7 0.3-0.6 0.3-0.6 0.3-0.6 0.4-0.6 0.3-0.5 0.4-0.5 0.4-0.5 0.5-0.5 0.4-0.5 0.5-0.4 0.5-0.4 0.5-0.4 0.5-0.4 0.5-0.3 0.5-0.4 0.6-0.2 0.5-0.3 0.6-0.2 0.6-0.2 0.6-0.2 0.6-0.1 0.6-0.2 0.6-0.1h0.4 0.2l0.6-0.1h1.4l0.6 0.1 0.6 0.1h0.6l0.6 0.2 0.5 0.1 0.6 0.2 0.5 0.3 0.5 0.2 0.4 0.2 0.5 0.3 0.4 0.4 0.3 0.3 0.4 0.4 0.3 0.4 0.3 0.5 0.3 0.4 0.3 0.5 0.2 0.5 0.2 0.6 0.2 0.5 0.1 0.6 0.1 0.6 0.1 0.6zm-15.2 0.8h8.7v-0.4l-0.1-0.4v-0.4l-0.2-0.3-0.1-0.4-0.2-0.3-0.2-0.3-0.2-0.3-0.3-0.2-0.2-0.2-0.3-0.2-0.4-0.1-0.3-0.1-0.3-0.1-0.4-0.1h-0.8l-0.3 0.1h-0.1l-0.4 0.1h-0.4l-0.3 0.2-0.4 0.1-0.3 0.3-0.4 0.2-0.4 0.2-0.3 0.3-0.3 0.3-0.3 0.4-0.2 0.3-0.2 0.4-0.2 0.4zm-7.4-19.2l-2.1 11.1-0.2-0.4-0.2-0.5-0.3-0.3-0.3-0.4-0.4-0.4-0.4-0.3-0.3-0.3-0.5-0.3-0.4-0.2-0.4-0.2-0.5-0.1-0.5-0.2-0.4-0.1-0.5-0.1-0.5-0.1h-1l-0.5 0.1-0.4 0.1h-0.4l-0.4 0.1-0.5 0.2-0.4 0.1-0.4 0.2-0.4 0.2-0.4 0.2-0.4 0.2-0.4 0.3-0.4 0.2-0.3 0.4-0.4 0.2-0.4 0.4-0.3 0.4-0.3 0.4-0.4 0.3-0.3 0.4-0.2 0.5-0.3 0.3-0.3 0.5-0.4 0.9-0.4 0.9-0.2 0.5-0.1 0.5-0.1 0.5-0.1 0.5-0.1 0.5-0.1 0.5-0.1 0.5-0.1 0.5v0.5 0.9l0.1 0.5v0.4l0.1 0.5 0.1 0.3 0.1 0.5 0.1 0.4 0.2 0.4 0.2 0.4 0.2 0.3 0.4 0.7 0.2 0.3 0.4 0.3 0.2 0.3 0.3 0.2 0.3 0.2 0.3 0.2 0.4 0.2 0.4 0.2 0.3 0.1 0.4 0.1 0.4 0.1 0.4 0.1 0.5 0.1h0.4 1 0.5l0.5-0.1 0.5-0.2 0.5-0.1 0.5-0.2 0.5-0.1 0.5-0.3 0.5-0.3 0.5-0.3 0.5-0.3 0.5-0.3 0.4-0.4 0.4-0.4 0.4-0.4 0.4-0.4-2 11.1-0.6 0.2-0.5 0.2-1.1 0.4-0.5 0.1-0.6 0.2-0.5 0.1-0.5 0.1-0.4 0.1-0.4 0.1h-0.4l-0.3 0.1h-0.4-0.4l-0.4 0.1h-0.4l-0.9-0.1h-0.7l-0.8-0.1-0.8-0.2-0.7-0.1-0.7-0.3-0.7-0.3-0.7-0.3-0.7-0.3-0.7-0.4-0.6-0.4-0.6-0.5-0.6-0.5-0.5-0.6-0.6-0.5-0.5-0.6-0.5-0.7-0.4-0.7-0.4-0.7-0.4-0.8-0.3-0.8-0.2-0.8-0.2-0.8-0.2-0.8-0.1-0.9-0.1-0.9-0.1-0.9v-0.9l0.1-1 0.1-0.9 0.1-1 0.1-1 0.2-0.9 0.2-0.9 0.3-0.9 0.3-0.8 0.3-1 0.4-0.8 0.4-0.9 0.4-0.8 0.5-0.9 0.5-0.8 0.5-0.8 0.5-0.8 0.7-0.7 0.6-0.7 1.2-1.4 0.7-0.6 0.7-0.6 0.8-0.6 0.7-0.5 0.7-0.5 0.8-0.5 0.8-0.4 0.8-0.4 0.9-0.4 0.8-0.3 0.8-0.3 0.8-0.2 0.8-0.2 0.9-0.1 0.8-0.1 0.8-0.1h0.3 0.5 0.5l0.5 0.1 0.9 0.1 0.4 0.1 0.5 0.1 0.4 0.1 0.9 0.2 0.8 0.4 0.9 0.3 0.8 0.4z"/>
					</g>
					<g id="g5791">
						<path id="path5793" fill-rule="evenodd" class="s1" d="m-2739.2 26.8h56.9l-0.4 4h-3.8l-2.2 22.8h-7.4l2.2-22.8h-6.8l-2.2 22.8h-7.3l0.5-5.2-0.6 0.4-0.5 0.3-0.5 0.4-0.6 0.2-0.5 0.3-0.6 0.3-0.5 0.2-0.6 0.2-0.5 0.2-0.4 0.1h-0.2l-0.5 0.2-1.1 0.2h-0.6l-0.5 0.1h-0.6-0.9l-0.9-0.1-0.8-0.1-0.9-0.2-0.3-0.1-0.4-0.1-0.4-0.1-0.4-0.2-0.3-0.1-0.3-0.2-0.4-0.2-0.3-0.2-0.3-0.2-0.3-0.2-0.3-0.2-0.2-0.3-0.3-0.2-0.3-0.3-0.2-0.2-0.3-0.3-0.2-0.3-0.2-0.3-0.2-0.3-0.2-0.4-0.4-0.7-0.3-0.8-0.3-0.6-0.2-0.8-0.2-0.8-0.1-0.8-0.1-0.8-0.1-1v-0.9-1l1.2-0.5v0.1h0.3 0.4 0.5 0.6 0.5 0.5l0.5-0.1 0.5-0.1 0.4-0.1 0.5-0.2 0.4-0.1 0.6-0.2 0.5-0.3 0.4-0.3 0.2-0.1 0.1-0.2 0.1-0.1 0.2-0.2 0.1-0.2 0.1-0.2 0.1-0.2 0.1-0.2v-0.2l0.1-0.2v-0.4-0.6-0.3l-0.1-0.3-0.1-0.3v-0.3l-0.1-0.2-0.2-0.3-0.1-0.2-0.2-0.2-0.1-0.2-0.2-0.2-0.3-0.2-0.2-0.2-0.2-0.2h-13.1l-0.6 6.2h-12.8-0.4l-0.3 0.1-0.2 0.1h-0.1l-0.1 0.1-0.1 0.1-0.3 0.2v0.1l-0.1 0.2v0.1l-0.1 0.1v0.2l-0.1 0.1v0.7l0.1 0.2 0.1 0.2v0.1l0.1 0.1 0.2 0.1 0.1 0.2 0.2 0.1 0.2 0.1 0.4 0.1h0.3 0.2 7.7 0.3l0.8 0.1 0.3 0.1 0.3 0.1 0.3 0.1 0.3 0.1 0.4 0.2 0.2 0.1 0.6 0.4 0.3 0.2 0.3 0.2 0.2 0.2 0.3 0.2 0.3 0.3 0.2 0.3 0.2 0.3 0.3 0.2 0.1 0.3 0.1 0.3 0.2 0.3 0.1 0.4 0.1 0.2 0.1 0.4 0.1 0.3v0.4l0.1 0.3v0.4 0.4 0.4l-0.1 0.4-0.1 0.6-0.1 0.4-0.1 0.5-0.1 0.5-0.2 0.4-0.1 0.5-0.3 0.4-0.2 0.4-0.2 0.4-0.6 0.7-0.3 0.4-0.3 0.4-0.3 0.3-0.4 0.4-0.8 0.6-0.4 0.3-0.5 0.2-0.4 0.3-0.5 0.2-0.5 0.2-0.5 0.2-0.5 0.1-0.6 0.2-0.6 0.1-1.1 0.2-0.6 0.1h-2.3l-1-0.1-1-0.2-1.1-0.1-1.4-0.3-1.4-0.4-1.2-0.3-1.2-0.3-1-0.4-1-0.4-0.4-0.2-0.5-0.2-0.4-0.2-0.3-0.2-0.4-0.2-0.2-0.2-0.3-0.2-0.4-0.3-0.2-0.2-0.3-0.3-0.3-0.4-0.3-0.3 2.4-6 0.1 0.1v0.1l0.1 0.2 0.3 0.2 0.3 0.3 0.5 0.3 0.5 0.4 0.7 0.3 0.8 0.5 0.9 0.4 0.9 0.5 0.9 0.4 0.8 0.3 0.9 0.3 0.9 0.2 0.9 0.2 0.8 0.2 0.6 0.1h0.6 0.5 0.5 0.5 0.5 0.4l0.5-0.1 0.3-0.1 0.4-0.1 0.3-0.2 0.3-0.1 0.3-0.1 0.3-0.2 0.2-0.2 0.2-0.2 0.1-0.3 0.2-0.2 0.1-0.4 0.1-0.2v-0.3-0.2-0.2l-0.1-0.2-0.1-0.2-0.2-0.2-0.1-0.2-0.2-0.2-0.3-0.1-0.2-0.2-0.2-0.1-0.2-0.1-0.3-0.1h-0.3l-0.4-0.1h-6.6-0.3l-0.4-0.1-0.7-0.1h-0.3l-0.3-0.1-0.4-0.2-0.3-0.1-0.6-0.3-0.3-0.1-0.4-0.3-0.2-0.2-0.3-0.2-0.3-0.2-0.3-0.3-0.3-0.2-0.3-0.3-0.2-0.3-0.2-0.3-0.2-0.2-0.2-0.3-0.1-0.3-0.1-0.3-0.1-0.3-0.1-0.4-0.1-0.3v-0.3l-0.1-0.3v-0.7l0.1-0.3v-0.4l0.1-0.3 0.1-0.3 0.1-0.3 0.2-0.4 0.1-0.2 0.2-0.3 0.2-0.3 0.2-0.3 0.2-0.3 0.3-0.2 0.2-0.3 0.4-0.2 0.2-0.3 0.4-0.2 0.6-0.4 0.6-0.3 0.7-0.3 0.7-0.2 0.7-0.2 0.6-0.1 0.7-0.1h0.8 7.1l0.2-2h-20.8l-2.2 22.8h-7.4l2.2-22.8h-3.9l0.4-4h2.9l-0.1-0.2-0.1-0.3v-0.2l-0.1-0.3v-0.3-0.3-0.3-0.4l0.1-0.6 0.1-0.6 0.1-0.7 0.2-0.6 0.2-0.6 0.3-0.6 0.2-0.5 0.3-0.5 0.4-0.5 0.3-0.5 0.4-0.4 0.5-0.5 0.4-0.4 0.5-0.4 0.5-0.3 0.6-0.4 0.5-0.3 0.7-0.3 0.6-0.3 0.7-0.2 0.7-0.3 0.8-0.2 0.7-0.2 0.8-0.2 0.9-0.1 0.8-0.1 0.9-0.1 1-0.1 1-0.1h0.9 2.2 1.1l1.1 0.1h1.1l1 0.1 1 0.2 0.9 0.1 0.9 0.2 0.8 0.2 0.8 0.2 0.8 0.2 0.7 0.3 0.7 0.2 0.6 0.3 0.6 0.4 0.5 0.3 0.4 0.4 0.4 0.3 0.3 0.3 0.3 0.4 0.3 0.3 0.2 0.4 0.2 0.4 0.2 0.4 0.2 0.5 0.2 0.9 0.1 0.5v0.4l0.1 0.6v0.5l-0.1 1.1v0.4l-0.1 0.2v0.3l-0.1 0.3-0.1 0.2-0.1 0.2-0.1 0.3-0.1 0.1-0.4 0.5zm-5.8-2.8v-0.4-0.5-0.4l-0.1-0.4-0.1-0.3-0.2-0.3-0.2-0.3-0.2-0.3-0.2-0.2-0.3-0.2-0.3-0.2-0.3-0.2-0.4-0.1-0.4-0.2-0.4-0.1-0.5-0.1-0.5-0.1-0.5-0.1h-0.5l-0.6-0.1h-0.7-0.6-0.7-0.7l-1.3 0.1-1.2 0.1-1.2 0.1-1.1 0.2-1 0.2-0.9 0.2-0.4 0.1-0.4 0.2-0.4 0.1-0.4 0.2-0.3 0.1-0.4 0.2-0.3 0.2-0.3 0.2-0.2 0.2-0.2 0.2-0.3 0.2-0.2 0.2-0.2 0.2-0.1 0.3-0.1 0.2-0.2 0.3-0.1 0.2-0.1 0.3v0.3l-0.1 0.3v0.5 0.5 0.5l0.1 0.3 0.1 0.1 0.1 0.1v0.2h0.1l0.1 0.1 0.1 0.1h0.1 0.1 0.1l0.1-0.1 0.1-0.1h17.1l-0.2-0.3 0.4-0.2 0.3-0.2 0.3-0.4 0.3-0.3 0.1-0.3 0.2-0.3 0.1-0.4zm36 17l1-10.2h-6l0.3 0.3 0.3 0.4 0.2 0.5 0.1 0.4 0.1 0.5 0.1 0.5v0.5 0.6l-0.1 0.3v0.4l-0.1 0.4-0.2 0.4-0.1 0.3-0.1 0.3-0.3 0.4-0.4 0.5-0.3 0.3-0.3 0.3-0.1 0.1-0.3 0.1-0.3 0.3-0.3 0.2-0.4 0.2-0.5 0.2-0.6 0.3-0.6 0.2-0.6 0.1-0.6 0.2-0.7 0.1-0.6 0.2h-0.7-0.7v0.7l0.1 0.6v0.5l0.2 0.5 0.2 0.5 0.2 0.4 0.2 0.4 0.3 0.4 0.2 0.1 0.1 0.2 0.2 0.1 0.2 0.2 0.4 0.2 0.5 0.2 0.5 0.1 0.5 0.1h0.6l0.6 0.1 0.6-0.1h0.5l0.5-0.1 0.3-0.1h0.3l0.5-0.2 0.6-0.2 0.4-0.2 0.5-0.3 0.5-0.3 0.5-0.4 0.5-0.4 0.4-0.3 0.4-0.5 0.5-0.5 0.4-0.5zm-65.3-16.8l-0.4 0.3-0.4 0.2-0.5 0.2-0.4 0.1-0.5 0.2-0.5 0.1h-0.5-0.5l-0.5-0.1-0.5-0.1-0.4-0.2-0.5-0.1-0.4-0.3-0.4-0.2-0.4-0.4-0.3-0.3-0.3-0.4-0.1-0.2-0.2-0.2-0.1-0.2v-0.2l-0.1-0.3-0.1-0.2v-0.2l-0.1-0.3v-0.5-0.5l0.1-0.5 0.1-0.5 0.2-0.5 0.2-0.5 0.3-0.4 0.3-0.5 0.4-0.4 0.4-0.3 0.5-0.3 0.4-0.3 0.4-0.3 0.5-0.1 0.5-0.2 0.5-0.1 0.5-0.1h0.6l0.5 0.1h0.4l0.5 0.1 0.4 0.2 0.4 0.2 0.4 0.3 0.4 0.3 0.3 0.3 0.3 0.3 0.3 0.4 0.2 0.5 0.2 0.4 0.1 0.4v0.5l0.1 0.5-0.1 0.5v0.5l-0.2 0.5-0.1 0.5-0.3 0.4-0.2 0.4-0.3 0.4-0.3 0.4-0.4 0.4zm-32.5 2.6h31.1l-0.4 4.1h-4.3l-0.6 6.3h-14.7l-0.4 0.1h-0.2l-0.3 0.1-0.2 0.2-0.2 0.2-0.2 0.2-0.2 0.3v0.3 0.2 0.2l0.1 0.1v0.2l0.2 0.1 0.1 0.1h0.1l0.2 0.1 0.2 0.1h0.4 0.4 0.6 7.8l0.7 0.1 0.6 0.1 0.7 0.2 0.6 0.2 0.5 0.3 0.3 0.1 0.3 0.2 0.2 0.1 0.3 0.2 0.2 0.3 0.2 0.2 0.3 0.3 0.2 0.2 0.1 0.3 0.2 0.3 0.2 0.3 0.1 0.3 0.1 0.6 0.1 0.4 0.1 0.4v1.1l-0.1 0.4-0.1 0.4-0.1 0.3-0.1 0.4v0.3l-0.2 0.4-0.1 0.3-0.1 0.2-0.2 0.3-0.2 0.3-0.1 0.3-0.4 0.4-0.3 0.2-0.2 0.2-0.2 0.2-0.3 0.2-0.9 0.5-0.6 0.2-0.6 0.2-0.7 0.1-0.7 0.2-0.7 0.1h-0.8l-0.8 0.1h-0.7-0.7-0.8l-0.8 0.1h-2.1l-0.1 0.1v0.1l-0.1 0.1v0.2l0.1 0.2 0.1 0.2 0.2 0.1 0.3 0.2 0.3 0.1 0.4 0.1 0.4 0.1 0.4 0.1 0.6 0.1 0.6 0.1h0.7l1.5 0.1h1.7l-0.5 4.6h-0.2l-0.4 0.1h-0.5-0.8-0.9-0.9l-0.9-0.1h-0.8l-0.8-0.1-0.7-0.1-0.7-0.1-0.7-0.1-0.6-0.1-0.6-0.1-0.5-0.2-0.5-0.2-0.4-0.2-0.4-0.2-0.4-0.2-0.3-0.3-0.2-0.2-0.2-0.2-0.2-0.2-0.4-0.6-0.3-0.3-0.2-0.4-0.2-0.3-0.4-0.9-0.4-1-0.4-1-0.4-1.2-0.7-0.2-0.7-0.3-0.6-0.4-0.6-0.4 0.9-4.7 0.8 0.4 0.8 0.4 0.8 0.4 0.8 0.4 0.7 0.2 0.8 0.3 0.9 0.2 0.9 0.1 0.9 0.1 1.1 0.1 1.1 0.1h1.2 1.2 0.9 0.7l0.4-0.1 0.3-0.1 0.3-0.1 0.3-0.2 0.2-0.2 0.1-0.2 0.2-0.2 0.1-0.3v-0.4-0.3-0.3-0.1l-0.1-0.1-0.1-0.1-0.1-0.1v-0.1l-0.1-0.1h-0.1l-0.1-0.1h-0.3-0.3-6.5l-0.7-0.1h-0.7l-0.7-0.2-0.6-0.1-0.7-0.2-0.6-0.2-0.6-0.3-0.5-0.3-0.3-0.2-0.3-0.2-0.3-0.2-0.2-0.2-0.2-0.3-0.3-0.2-0.1-0.2-0.2-0.3-0.1-0.3-0.1-0.2-0.1-0.3v-0.3l-0.1-0.3-0.1-0.3v-0.7l0.1-0.3 0.1-0.3 0.1-0.7 0.1-0.3 0.2-0.3 0.1-0.3 0.2-0.2 0.2-0.3 0.2-0.2 0.2-0.3 0.3-0.2 0.3-0.2 0.3-0.3 0.3-0.2 0.3-0.1 0.6-0.3 0.6-0.3 0.6-0.2 0.7-0.2 0.7-0.1 0.6-0.1 0.8-0.1h9.7l0.2-2.1h-19.7zm-42.6 24.8l0.1 0.3 0.1 0.3v0.8l-0.1 0.4-0.1 0.3-0.1 0.3-0.1 0.4-0.2 0.3-0.2 0.3-0.3 0.2-0.2 0.3-0.3 0.2-0.4 0.2-0.3 0.2-0.3 0.1-0.4 0.2-0.3 0.1h-0.4-0.3-0.4-0.4l-0.6-0.2-0.3-0.1-0.3-0.2-0.3-0.2-0.3-0.3-0.3-0.2-0.2-0.3-0.2-0.2-0.1-0.4-0.1-0.3v-0.3-0.8-0.4l0.1-0.4 0.3-0.7 0.2-0.3 0.2-0.3 0.3-0.3 0.3-0.3 0.3-0.2 0.3-0.2 0.4-0.2 0.3-0.1 0.3-0.1 0.4-0.1 0.4-0.1h0.7l0.4 0.1 0.3 0.1 0.3 0.1 0.3 0.2 0.3 0.2 0.3 0.2 0.3 0.2 0.1 0.3 0.3 0.3 0.1 0.2zm-11.5-24.8h41l-0.4 4h-17.2l-0.4 4.2 0.7-0.4 0.7-0.3 0.7-0.2 0.8-0.3 0.8-0.1 0.8-0.1 0.9-0.1h1.4 0.5l0.5 0.1 0.5 0.1 0.5 0.1 0.4 0.1 0.5 0.1 0.4 0.2 0.4 0.2 0.4 0.1 0.4 0.2 0.4 0.2 0.3 0.3 0.4 0.2 0.3 0.3 0.3 0.3 0.3 0.3 0.3 0.4 0.3 0.4 0.2 0.3 0.3 0.4 0.1 0.4 0.2 0.4 0.1 0.5 0.1 0.4 0.2 0.9 0.1 0.5v0.5 0.4 0.6l-0.1 0.5-0.1 0.5-0.1 0.5-0.1 0.5-0.3 0.9-0.1 0.4-0.2 0.5-0.2 0.3-0.2 0.4-0.3 0.4-0.3 0.4-0.3 0.3-0.2 0.3-0.4 0.4-0.3 0.3-0.4 0.2-0.3 0.3-0.4 0.2-0.3 0.3-0.4 0.2-0.4 0.1-0.3 0.2-0.5 0.2-0.4 0.1-0.4 0.1-0.4 0.1-0.5 0.2h-0.4l-0.5 0.1-0.5 0.1h-0.5l-0.5 0.1h-0.7-0.7l-0.6-0.1-0.5-0.1-0.3-0.1h-0.2l-0.2-0.1-0.3-0.1-0.1-0.1-0.2-0.1-0.1-0.1-0.2-0.2 0.5-5.3 0.2 0.1 0.3 0.1 0.2 0.1h0.3l0.6 0.1h0.6 0.4l0.5-0.1h0.4l0.5-0.1 0.3-0.1 0.3-0.1 0.4-0.2 0.2-0.1 0.3-0.2 0.2-0.2 0.2-0.3 0.2-0.3 0.1-0.3 0.1-0.3 0.1-0.3 0.1-0.3v-0.9l-0.1-0.3-0.1-0.3-0.1-0.3-0.1-0.3-0.2-0.3-0.3-0.2-0.2-0.2-0.3-0.2-0.3-0.1-0.4-0.2h-0.4l-0.5-0.1h-0.4-0.5-0.4-0.3l-0.3 0.1h-0.3-0.3l-0.3 0.2-0.3 0.1-0.3 0.1-0.2 0.1-0.3 0.2-0.3 0.1-0.2 0.2-0.2 0.2-0.3 0.2-0.2 0.2-0.3 0.3-1.1 12.3h-7.4l0.6-6-0.6 0.3-0.6 0.2-0.6 0.2-0.7 0.2-0.7 0.1-0.7 0.1h-0.9-0.8-0.4l-0.5-0.1-0.4-0.1-0.8-0.1-0.4-0.2-0.4-0.1-0.4-0.2-0.3-0.2-0.4-0.2-0.3-0.2-0.4-0.3-0.3-0.2-0.3-0.3-0.3-0.3-0.3-0.4-0.3-0.3-0.3-0.4-0.2-0.3-0.2-0.4-0.2-0.4-0.2-0.4-0.2-0.4-0.2-0.4-0.1-0.4-0.1-0.4v-0.4l-0.1-0.4v-0.5-0.4-0.5-0.4l0.2-1.8 0.1-1.6 0.1-1.3 0.1-1.2 0.1-1 0.1-0.8v-0.5l0.1-0.4h-2.1zm8 13.4l0.1 0.4 0.1 0.3 0.1 0.3 0.1 0.3 0.2 0.2 0.2 0.3 0.2 0.1 0.3 0.2 0.2 0.1 0.3 0.1 0.3 0.1h0.3 0.4 0.3l0.3-0.1h0.3l0.3-0.1h0.4l0.3-0.1 0.3-0.1 0.3-0.2 0.2-0.1 0.3-0.2 0.3-0.2 0.2-0.2 0.3-0.2 0.3-0.2 0.2-0.3 1-9.8h-7.3v0.6l-0.1 0.6v0.7l-0.1 0.9-0.1 1-0.1 1.2-0.1 1.2-0.2 1.4v0.5l-0.1 0.5zm-8.1-14.7l-0.4 0.2-0.6 0.1-1.1 0.3-0.5 0.1-0.6 0.1-0.6 0.1h-0.6l-0.7 0.1h-0.6-0.7-0.6l-0.6-0.1h-0.6l-0.7-0.1h-0.5l-0.6-0.2h-0.6l-0.5-0.2-0.4-0.1-0.6-0.2-0.4-0.2-0.5-0.1-0.4-0.3-0.4-0.2-0.4-0.3-0.4-0.2-0.5-0.4-0.5-0.5-0.4-0.4-0.4-0.6-0.3-0.5-0.4-0.6-0.3-0.6-0.2-0.6-0.2-0.8-0.2-0.8-0.2-0.7-0.2-0.7h7.9l-0.1 0.2 0.1 0.3v0.2l0.1 0.3 0.1 0.2 0.3 0.3 0.1 0.3 0.2 0.2 0.2 0.2 0.2 0.1 0.2 0.2 0.2 0.1 0.2 0.1 0.2 0.1 0.2 0.2h0.2l0.5 0.1 0.6 0.1 0.5 0.1h0.7l0.5-0.1 0.6-0.1h0.5l0.5-0.1 0.5-0.2 0.4-0.1 0.4-0.2 0.4-0.2 0.3-0.2 0.3-0.3 0.2-0.2 0.1-0.3 0.2-0.3 0.2-0.3 0.1-0.4v-0.3h8l-0.4 0.7-0.3 0.7-0.3 0.8-0.3 0.8-0.4 0.6-0.4 0.7-0.4 0.5-0.4 0.6-0.5 0.5-0.5 0.5-0.6 0.4-0.6 0.4-0.4 0.3-0.4 0.3-0.5 0.2-0.5 0.2zm-31.6 5.2l0.4-3.9h29.8l-0.4 4h-3.8l-2.2 22.7h-7.4l2.2-22.7h-3.8v-0.1h-2.9l-2.2 22.8h-7.4l1.1-11.4h-5.6l0.3-3 0.2-2.1h5.6l0.6-6.3zm-1.8 14.3l0.1 0.5-0.1 0.6v0.5l-0.1 0.5-0.1 0.4v0.1l-0.1 0.5-0.1 0.4-0.2 0.5-0.1 0.4-0.2 0.4-0.2 0.4-0.2 0.4-0.2 0.3-0.3 0.4-0.3 0.3-0.3 0.3-0.3 0.3-0.3 0.2-0.8 0.5-0.3 0.3-0.5 0.2-0.4 0.2-0.4 0.1-0.5 0.2-0.5 0.2-0.5 0.1-0.5 0.1-0.5 0.1h-0.6l-0.6 0.1-0.6 0.1h-0.6-0.7-0.4-0.4-0.5l-0.4-0.1-0.6-0.1h-0.7l-0.5-0.1-0.7-0.1-0.5-0.1-0.6-0.2-0.6-0.2-0.5-0.2-0.6-0.2-0.5-0.2-0.5-0.3-0.5-0.3-0.5-0.3-0.6-0.4-0.5-0.3-0.5-0.4-0.5-0.4-1-0.9-0.4-0.4-0.4-0.5-0.3-0.4-0.4-0.4-0.2-0.5 3.8-5 0.3 0.4 0.4 0.4 0.3 0.4 0.3 0.4 0.4 0.4 0.4 0.4 0.4 0.3 0.4 0.4 0.3 0.3 0.4 0.2 0.3 0.3 0.4 0.2 0.3 0.2 0.3 0.2 0.4 0.2 0.3 0.1 0.4 0.2 0.3 0.1 0.4 0.1 0.7 0.1h0.3 0.4 0.3 0.6 0.5l0.5-0.1 0.4-0.1 0.4-0.1 0.3-0.1 0.3-0.1 0.3-0.2 0.3-0.2 0.3-0.3 0.2-0.2 0.2-0.4 0.2-0.4 0.2-0.4v-0.5l0.1-0.5v-0.6-0.2l-0.1-0.2v-0.3l-0.2-0.2-0.1-0.2-0.4-0.3-0.2-0.2-0.2-0.1-0.2-0.1-0.3-0.1-0.4-0.1-0.3-0.1h-0.4-5.1l0.4-4.6h5.8 0.3l0.2-0.1h0.2l0.2-0.1 0.2-0.1 0.2-0.1 0.1-0.2 0.2-0.1 0.1-0.2 0.1-0.2 0.1-0.2v-0.2l0.1-0.2v-0.3l0.1-0.2-0.1-0.3v-0.3l-0.1-0.2-0.1-0.2-0.2-0.2-0.1-0.1-0.2-0.2-0.3-0.1-0.2-0.1-0.3-0.1-0.3-0.1-0.3-0.1h-0.4-0.4-0.4l-1.6 0.1-0.8 0.1-0.8 0.2-0.7 0.2-0.8 0.3-0.7 0.3-0.7 0.4-2.1-5.2 0.7-0.3 0.8-0.3 0.8-0.3 0.7-0.4 0.7-0.2 0.7-0.2 0.6-0.2 0.8-0.2 0.7-0.1 0.6-0.1 0.7-0.1h0.7 1 1l1.1 0.1 0.9 0.1 0.5 0.1 0.4 0.2 0.4 0.1 0.5 0.1 0.4 0.2 0.4 0.1 0.4 0.2 0.3 0.2 0.5 0.3 0.4 0.2 0.4 0.3 0.3 0.3 0.3 0.3 0.3 0.4 0.3 0.3 0.2 0.4 0.2 0.4 0.1 0.3 0.2 0.4 0.1 0.5v0.4 0.5 0.4 0.5l-0.1 0.5-0.1 0.4-0.1 0.2v0.2l-0.3 0.7-0.2 0.4-0.2 0.3-0.2 0.4-0.3 0.3-0.3 0.3-0.3 0.2-0.4 0.3-0.7 0.5-0.4 0.2-0.5 0.2 0.6 0.4 0.4 0.3 0.5 0.4 0.4 0.3 0.4 0.4 0.3 0.4 0.3 0.4 0.3 0.4 0.2 0.4 0.2 0.5 0.2 0.4v0.3l0.1 0.2 0.1 0.5zm-76.4-18.2h43.8l-0.4 4h-19.5l-0.4 4.1 0.8-0.4 0.8-0.4 0.8-0.4 0.8-0.2 0.8-0.2 0.7-0.2h0.4l0.4-0.1h0.3 0.9 0.5l0.5 0.1 0.5 0.1 0.4 0.1 0.5 0.1 0.4 0.1 0.5 0.2 0.4 0.2 0.4 0.2 0.4 0.3 0.4 0.2 0.3 0.2 0.4 0.4 0.3 0.3 0.4 0.3 0.3 0.4 0.2 0.4 0.3 0.4 0.3 0.4 0.3 0.8 0.2 0.4 0.2 0.5 0.1 0.4 0.1 0.5v0.4l0.1 0.5v1.1 0.5l-0.1 0.5-0.1 1-0.2 0.5-0.1 0.5-0.3 0.9-0.2 0.5-0.2 0.4-0.3 0.4-0.2 0.4-0.3 0.4-0.3 0.3-0.3 0.4-0.3 0.4-0.4 0.3-0.3 0.4-0.4 0.2-0.4 0.3-0.3 0.3-0.4 0.2-0.4 0.2-0.4 0.3-0.4 0.1-0.4 0.2-0.4 0.1-0.5 0.2-0.4 0.1-0.4 0.1-0.5 0.1-0.9 0.1h-0.5-1.5-0.4-0.4l-0.3-0.1-0.3-0.1h-0.2l-0.2-0.1-0.2-0.2-0.2-0.2-0.2-0.2 0.6-6.7 0.3 0.1 0.3 0.2 0.3 0.1 0.4 0.1 0.3 0.1h0.3 0.3l0.3 0.1 0.4-0.1h0.4l0.3-0.1 0.4-0.1 0.2-0.1 0.3-0.2 0.3-0.2 0.2-0.1 0.2-0.3 0.2-0.3 0.1-0.3 0.2-0.3v-0.3l0.1-0.4v-0.4l0.1-0.5v-0.4l-0.1-0.4-0.1-0.6v-0.2l-0.2-0.3-0.1-0.2-0.2-0.1-0.2-0.2-0.3-0.2-0.3-0.1-0.3-0.1h-0.4l-0.4-0.1h-0.5l-0.6-0.1-0.5 0.1h-0.3l-0.3 0.1-0.2 0.1-0.3 0.1-0.3 0.1-0.3 0.2-0.2 0.2-0.3 0.2-0.3 0.2-0.3 0.2-0.2 0.2-0.3 0.3-0.3 0.3-0.2 0.3-1.2 12.3h-7.4l0.5-4.4-0.9 0.4-0.9 0.4-0.9 0.3-0.9 0.2-0.9 0.2-0.9 0.2h-0.8l-0.9 0.1h-0.5-0.4l-0.4-0.1h-0.5l-0.3-0.1-0.4-0.1-0.4-0.1-0.3-0.2-0.4-0.1-0.3-0.2-0.4-0.2-0.3-0.2-0.3-0.2-0.3-0.3-0.3-0.3-0.2-0.3-0.3-0.3-0.2-0.3-0.2-0.3-0.2-0.4-0.2-0.4-0.3-0.7-0.1-0.4-0.1-0.4-0.1-0.4-0.1-0.5v-0.4-1.4-0.5l0.1-0.5v-0.5l0.1-0.5 0.1-0.5 0.2-0.4 0.1-0.5 0.2-0.4 0.4-0.9 0.2-0.4 0.2-0.4 0.3-0.4 0.2-0.3 0.3-0.4 0.3-0.3 0.3-0.4 0.4-0.3 0.3-0.3 0.4-0.3 0.3-0.2 0.4-0.3 0.4-0.2 0.3-0.2 0.4-0.2 0.4-0.1 0.5-0.2 0.4-0.1 0.4-0.1h0.5l0.4-0.1h0.5l0.5-0.1 0.9 0.1 0.8 0.1h0.4l0.4 0.1 0.4 0.1 0.3 0.1 0.3 0.1 0.4 0.1 0.3 0.1 0.2 0.2 0.3 0.1 0.3 0.2 0.2 0.2 0.3 0.2-0.6 5.6-0.3-0.3-0.4-0.4-0.3-0.2-0.4-0.2-0.4-0.2-0.5-0.1-0.4-0.1h-0.5l-0.4 0.1h-0.4l-0.4 0.1-0.4 0.1-0.3 0.1-0.3 0.2-0.3 0.1-0.3 0.3-0.2 0.2-0.2 0.2-0.2 0.3-0.2 0.2-0.1 0.4-0.1 0.3-0.1 0.4v0.3 0.4 0.4 0.3l0.1 0.4v0.3l0.2 0.2 0.1 0.2 0.2 0.3 0.2 0.1 0.3 0.2 0.3 0.1 0.2 0.1 0.3 0.1h0.3l0.3 0.1h0.3l0.4-0.1h0.4l0.4-0.1h0.4l0.3-0.1 0.4-0.1 0.3-0.1 0.3-0.1 0.4-0.1 0.5-0.4 0.3-0.2 0.2-0.2 0.3-0.2 0.2-0.3 0.3-0.2 1.1-12h-16.8zm0.4-1.6h-0.5l-0.4-0.1-0.5-0.2-0.4-0.1-0.4-0.3-0.4-0.2-0.4-0.4-0.4-0.3-0.3-0.4-0.1-0.2-0.1-0.2-0.1-0.3-0.1-0.2-0.1-0.2v-0.2l-0.1-0.2v-0.3-0.5-0.5l0.1-0.5 0.1-0.5 0.2-0.6 0.2-0.4 0.2-0.4 0.4-0.5 0.3-0.4 0.4-0.3 0.5-0.4 0.4-0.2 0.5-0.3 0.5-0.1 0.5-0.2 0.5-0.1 0.5-0.1h0.5 0.5l0.5 0.1 0.4 0.1 0.4 0.2 0.5 0.2 0.4 0.3 0.3 0.3 0.4 0.3 0.3 0.3 0.3 0.4 0.2 0.5 0.1 0.4 0.2 0.4v0.5 0.5 0.5l-0.1 0.5-0.1 0.5-0.2 0.5-0.2 0.4-0.3 0.4-0.3 0.4-0.3 0.4-0.3 0.3-0.4 0.4-0.5 0.3-0.4 0.2-0.4 0.2-0.5 0.1-0.4 0.2h-0.5l-0.5 0.1zm-3.1 2.6l-0.3 3h-4.8l-2.2 22.7h-7.3l0.5-5.3-0.4 0.2-0.5 0.3-0.5 0.2-0.5 0.2-0.5 0.2-0.5 0.2-0.6 0.1-0.5 0.1-0.6 0.1-0.5 0.2h-0.6l-0.6 0.1-0.6 0.1h-0.1l-0.5 0.1h-1.3-0.9-0.4l-0.5-0.1h-0.4l-0.4-0.1-0.4-0.1-0.4-0.2-0.4-0.1-0.4-0.1-0.4-0.2-0.3-0.2-0.4-0.2-0.4-0.2-0.3-0.3-0.3-0.2-0.4-0.3-0.4-0.4-0.3-0.3-0.3-0.4-0.3-0.3-0.2-0.4-0.2-0.4-0.2-0.4-0.1-0.4-0.1-0.5-0.2-0.4v-0.5l-0.1-0.5v-0.4-0.5-0.6l0.1-0.5v-0.5l0.2-0.6 0.1-0.5 0.2-0.4 0.2-0.5 0.2-0.4 0.2-0.5 0.3-0.4 0.3-0.4 0.3-0.4 0.4-0.4 0.3-0.3 0.4-0.3 0.4-0.4 0.5-0.3 0.4-0.2 0.4-0.3 0.4-0.2 0.4-0.2 0.4-0.1 0.5-0.2 0.4-0.1 0.5-0.2 0.5-0.1 0.5-0.1 1-0.1 0.5-0.1h0.5 0.4l0.1-0.1h0.6l1.3 0.1h1.1l1.1 0.1 0.8 0.1 0.8 0.1 0.6 0.1 0.2 0.1 0.2 0.1 0.2 0.1 0.1 0.2-0.5 4.5h-0.3l-0.4-0.1-0.5-0.2-0.6-0.1-0.6-0.2-0.6-0.1-0.6-0.1-0.4-0.1-0.4 0.1h-0.4l-0.5 0.1h-0.5l5.2 5 0.2-0.1 0.2-0.1 0.2-0.1 0.3-0.1 0.3-0.2 0.4-0.2 1.1-11h-19.9l0.4-4h14.4l-0.1-0.1-0.4-0.6-0.4-0.6-0.3-0.3-0.2-0.1-0.3-0.2-0.3-0.2-0.2-0.1-0.3-0.1-0.3-0.1-0.3-0.1h-0.3l3.4-4.7 0.8 0.6 0.8 0.6 0.7 0.6 0.7 0.7 0.8 0.8 0.7 0.7 0.6 0.8 0.6 0.7 0.5 0.7 0.4 0.7 0.2 0.3h2.4l-0.4-0.7-0.4-0.9-0.5-0.8-0.5-0.7-0.6-0.8-0.5-0.7-0.6-0.7-0.6-0.7-0.6-0.5-0.6-0.6-0.7-0.6-0.6-0.5-0.7-0.6-0.7-0.4-0.8-0.5 5.2-4.2 0.5 0.4 0.5 0.4 0.6 0.5 0.5 0.4 0.5 0.5 0.4 0.5 0.5 0.5 0.5 0.5 0.5 0.6 0.6 0.7 0.5 0.6 0.5 0.7 0.4 0.7 0.5 0.6 0.4 0.7 0.5 0.7 0.4 0.7 0.4 0.8 0.3 0.7 0.4 0.7 0.3 0.7 0.3 0.8 0.2 0.5h1.8zm-17.6 15.9l-3.5-3.2-1.8-1.7-0.2 0.2-0.3 0.1-0.2 0.2-0.2 0.2-0.1 0.2-0.2 0.1v0.3l-0.1 0.2-0.1 0.3-0.1 0.2v0.3l-0.1 0.4v0.4 0.4 0.4l0.1 0.4 0.2 0.2 0.2 0.3 0.2 0.2 0.3 0.2h0.2l0.3 0.1 0.3 0.2h0.4 0.4l0.4 0.1h0.5l0.5-0.1h0.3 0.3l0.3-0.1 0.4-0.1 0.8-0.2zm-116.3-17h94.5l-0.4 4.1h-6.9l-0.5 4.7 0.4 0.4 0.2 0.3 0.6 0.8 0.2 0.4 0.2 0.4 0.1 0.6 0.2 0.4 0.1 0.6 0.1 0.5 0.1 0.6v0.6 0.6 0.6 0.7l-0.1 0.7v0.6l-0.1 0.6-0.2 0.6-0.1 0.5-0.2 0.6-0.1 0.5-0.2 0.5-0.3 0.6-0.2 0.4-0.3 0.5-0.2 0.5-0.4 0.5-0.3 0.4-0.3 0.5-0.4 0.4-0.4 0.4-0.4 0.4-0.4 0.4-0.5 0.3-0.4 0.3-0.4 0.3-0.4 0.3-0.5 0.2-0.4 0.2-0.5 0.2-0.4 0.2-0.5 0.2-0.5 0.1-0.4 0.1h-0.5l-1 0.1h-1.2l-1.1-0.1-0.9-0.1-0.8-0.1h-0.4l-0.3-0.1-0.3-0.1h-0.3l-0.2-0.2-0.2-0.1-0.1-0.1-0.2-0.1 0.6-5.6 0.1 0.1 0.3 0.2 0.5 0.2 0.6 0.1 0.7 0.2 0.7 0.1h0.6 0.6 0.4l0.4-0.1 0.4-0.2 0.3-0.1 0.8-0.5 0.2-0.2 0.3-0.4 0.3-0.4 0.2-0.4 0.2-0.4 0.2-0.5 0.2-0.6 0.2-0.5 0.1-0.7 0.1-0.7v-0.6l0.1-0.5v-0.5-0.5l-0.1-0.5-0.1-0.4-0.1-0.4-0.1-0.3-0.1-0.2-0.1-0.2-0.2-0.1-0.1-0.2-0.1-0.1-0.2-0.1-0.1-0.1-0.2-0.1-0.1-0.1-0.3-0.1-0.1-0.1h-0.2-0.5-0.9-0.3l-0.4 0.1-0.4 0.2-0.3 0.2-0.3 0.3-0.3 0.3-0.3 0.3-0.3 0.5-0.3 0.4-0.1 0.5-0.2 0.4-0.2 2.4h-6.9l0.3-2.9-0.1-0.4-0.1-0.3-0.1-0.3-0.1-0.2-0.2-0.3-0.2-0.1-0.3-0.2-0.3-0.2-0.4-0.1-0.4-0.1h-0.4-0.4-0.5-0.5l-0.2 0.1-0.2 0.1h-0.2l-0.2 0.1-0.2 0.1-0.2 0.1-0.1 0.2-0.2 0.1-0.1 0.2-0.2 0.2-0.1 0.1-0.2 0.2-0.1 0.3-0.2 0.4-0.1 0.5-0.2 0.4-0.1 0.5-0.1 0.6-0.1 0.6-0.1 0.7-0.1 0.6v0.6 0.6l0.1 0.5 0.1 0.5 0.2 0.5 0.1 0.2 0.1 0.2 0.3 0.4 0.3 0.3 0.3 0.3 0.3 0.2 0.3 0.2 0.3 0.1 0.3 0.1 0.4 0.1h0.4l0.3-0.1 0.4-0.1 0.5-0.1 0.4-0.2 0.5-0.2 0.5-0.2 0.6-0.3 0.6-0.3-0.6 6.1-0.1 0.1-0.2 0.1-0.2 0.1-0.2 0.1-0.6 0.2-0.6 0.1-0.8 0.2h-0.8l-1 0.1h-1.1l-1-0.1h-0.4l-0.5-0.1-0.4-0.1-0.5-0.2-0.4-0.1-0.8-0.4-0.4-0.3-0.4-0.3-0.4-0.3-0.3-0.3-0.3-0.3-0.4-0.4-0.7-0.8-0.3-0.5-0.2-0.4-0.3-0.5-0.2-0.5-0.2-0.5-0.2-0.5-0.1-0.5-0.2-0.5-0.1-0.5v-0.6l-0.1-0.5v-0.6-0.6-0.6l0.1-0.6v-0.6l0.1-0.6 0.1-0.6 0.1-0.5 0.2-0.6 0.2-0.5 0.2-0.6 0.3-0.5 0.5-0.9 0.3-0.5 0.3-0.5 0.4-0.4 0.3-0.4 0.4-0.4 0.4-0.4 0.5-0.3 0.3-0.3 0.5-0.3 0.4-0.3 0.4-0.3 0.4-0.2 0.5-0.2 0.4-0.1 0.5-0.2 0.4-0.1 0.5-0.2 0.5-0.1 0.4-0.1h0.5 0.6l0.5-0.1 0.6 0.1h0.6 0.6l0.5 0.1 0.6 0.2 0.5 0.2 0.5 0.1 0.5 0.3 0.4 0.2 0.5 0.3 0.4 0.4 0.4 0.3 0.4 0.4 0.4 0.4 0.3 0.5 0.3 0.4 0.4-0.5 0.5-0.6 0.7-0.7 0.8-0.8 0.5-0.3 0.5-0.2 0.5-0.2 0.4-0.3 0.5-0.1 0.5-0.1h0.4l0.4-0.1 0.5 0.1h0.5 0.5l0.6 0.1 0.3-2.6h-32l-0.7 7.4h-9.3l-0.6 0.2-0.6 0.2-0.5 0.2-0.5 0.2-0.4 0.3-0.4 0.3-0.4 0.2-0.4 0.4-0.2 0.4-0.4 0.3-0.2 0.4-0.2 0.5-0.1 0.4-0.2 0.5-0.1 0.4v0.5 0.8 0.2l0.1 0.3v0.2l0.1 0.1 0.1 0.3 0.1 0.2 0.2 0.2 0.1 0.1 0.1 0.2 0.2 0.2 0.2 0.1 0.2 0.2 0.2 0.2 0.4 0.2 0.4 0.2 0.5 0.2 0.5 0.1 0.5 0.2h0.5l0.6 0.1h0.6 0.4 0.5l0.5-0.1h0.4l0.5-0.1 0.5-0.1 0.4-0.1 0.5-0.1 0.4-0.2 0.5-0.1 0.4-0.2 0.5-0.2 0.4-0.2 0.4-0.3 0.5-0.2 0.4-0.2 0.6-0.4 0.5-0.4 0.5-0.3 0.4-0.3 0.3-0.3 0.2-0.3 0.1-0.2 0.2-0.2 1.8 6.7-0.9 0.7-1 0.6-1 0.6-1 0.5-1.1 0.4-1 0.5-1 0.3-1.1 0.3-1.1 0.2-0.3 0.1 7.7 9.3-5.3 4.3-6.3-8.4-7.3 7-4.6-4.4 9-7.6-0.4-0.1-1.1-0.3-0.5-0.2-0.5-0.2-0.5-0.2-0.5-0.3-0.5-0.2-0.5-0.3-0.4-0.4-0.5-0.3-0.5-0.5-0.4-0.4-0.4-0.4-0.4-0.5-0.3-0.5-0.3-0.5-0.2-0.6-0.2-0.5-0.2-0.6-0.1-0.6-0.1-0.5-0.1-0.6v-0.7-0.6-0.8l0.1-0.7 0.1-0.6 0.2-0.7 0.2-0.6 0.2-0.7 0.2-0.6 0.3-0.5 0.4-0.6 0.3-0.6 0.4-0.5 0.4-0.5 0.5-0.4 0.5-0.5 0.5-0.4 0.6-0.5 0.6-0.3 0.8-0.5 0.8-0.4 0.8-0.3 0.8-0.3 0.8-0.2 0.8-0.2h0.3l0.4-0.1h0.4 0.3 3.6l0.2-2.2h-43l-2.2 22.7h-7.3l0.8-9h-7l0.4-5.3h7.1l0.8-8.4h-8.4l0.2 0.2 0.2 0.3 0.2 0.3 0.1 0.2 0.2 0.3 0.1 0.3 0.1 0.3v0.3l0.1 0.3 0.1 0.3v0.4 0.3l0.1 0.4v0.3l-0.1 0.4v0.4l-0.1 0.5-0.1 0.5-0.1 0.5-0.1 0.5-0.1 0.5-0.2 0.5-0.2 0.4-0.2 0.5-0.2 0.4-0.2 0.4-0.3 0.4-0.3 0.3-0.2 0.3-0.4 0.4-0.3 0.3-0.4 0.3-0.3 0.2-0.3 0.3-0.4 0.2-0.3 0.2-0.4 0.2-0.4 0.1-0.5 0.2-0.4 0.1-0.4 0.2h-0.5l-0.4 0.1h-0.5l-0.5 0.1h-0.9-0.6v0.5 0.4 0.5l0.1 0.4 0.2 0.5 0.2 0.4 0.2 0.4 0.3 0.4 0.3 0.2 0.3 0.2 0.4 0.2 0.4 0.1 0.5 0.1 0.5 0.1h0.5l0.7 0.1 0.9-0.1 0.9-0.1 1-0.1 1.1-0.2 0.8-0.1 0.6-0.1 0.4-0.1h0.1l-0.6 5.6h0.1v0.1h-0.1l-0.1 0.1-0.7 0.1-0.9 0.2-0.6 0.1h-0.7l-0.6 0.1-0.6 0.1-0.6 0.1h-0.6-0.6-0.7-0.9l-1-0.1-0.9-0.1-0.8-0.1-0.8-0.2-0.7-0.2-0.7-0.2-0.6-0.3-0.3-0.2-0.3-0.1-0.3-0.2-0.3-0.1-0.2-0.3-0.2-0.2-0.2-0.2-0.2-0.2-0.5-0.4-0.1-0.3-0.2-0.3-0.1-0.2-0.2-0.3-0.1-0.3-0.1-0.3-0.2-0.8-0.3-0.9-0.1-0.8-0.1-0.9-0.1-0.9 0.1-0.8v-0.9l0.2-0.9h-2.6l0.5-4.8h5.8l0.5 0.1h0.3l0.4 0.1h0.4l0.9-0.1 0.4-0.1 0.4-0.1 0.4-0.2 0.3-0.1 0.4-0.2 0.2-0.3 0.3-0.2 0.2-0.3 0.2-0.3 0.2-0.4 0.2-0.4 0.1-0.4 0.1-0.5 0.1-0.5v-0.4-0.5l-0.1-0.4-0.1-0.4-0.1-0.2-0.1-0.2-0.1-0.1-0.1-0.2-0.3-0.2-0.1-0.2-0.2-0.1-0.4-0.2-0.4-0.2h-0.2l-0.1-0.1h-0.2-9.8l0.4-4.1h28.9l-0.1-0.3-0.3-0.7-0.4-0.7-0.4-0.6-0.4-0.6-0.4-0.5-0.4-0.6-0.5-0.6-0.6-0.4-1-1-0.6-0.4-0.7-0.4-0.6-0.4-0.7-0.4-0.7-0.3 4.7-4.3 0.5 0.2 0.4 0.2 0.6 0.3 0.4 0.2 0.5 0.4 0.4 0.3 0.5 0.3 0.4 0.4 0.6 0.4 0.5 0.6 0.5 0.4 0.5 0.6 0.5 0.6 0.5 0.6 0.4 0.6 0.5 0.6 0.8 1.3 0.4 0.8 0.5 0.7 0.4 0.7 0.4 0.8 0.3 0.8zm21.5 13.5l0.1 0.5v0.7 0.6l-0.1 0.5v0.4l-0.1 0.3-0.2 0.4-0.1 0.4-0.1 0.4-0.2 0.4-0.2 0.4-0.2 0.3-0.2 0.3-0.3 0.4-0.2 0.3-0.4 0.4-0.2 0.3-0.4 0.3-0.3 0.3-0.4 0.3-0.4 0.2-0.4 0.3-0.3 0.3-0.4 0.2-0.4 0.1-0.5 0.2-0.4 0.2-0.4 0.1-0.5 0.1-0.4 0.2h-0.5l-0.4 0.1h-0.5-0.5-0.5-0.5-0.6l-0.5-0.1h-0.5l-0.5-0.1-0.5-0.1-0.4-0.2-0.5-0.2-0.4-0.1-0.4-0.2-0.4-0.2-0.4-0.3-0.3-0.2-0.4-0.3-0.3-0.3-0.3-0.3-0.3-0.4-0.3-0.3-0.2-0.3-0.2-0.3-0.2-0.4-0.2-0.3-0.1-0.4-0.1-0.4-0.1-0.3-0.1-0.4-0.1-0.4v-0.4-0.4-0.4-0.5-0.4l0.2-0.7 0.1-0.6 0.1-0.6 0.2-0.6 0.3-0.6 0.2-0.5 0.3-0.5 0.3-0.5 0.4-0.4 0.3-0.5 0.4-0.4 0.5-0.3 0.4-0.4 0.5-0.3 0.5-0.3 0.5-0.2 0.5-0.2 0.5-0.2 0.5-0.2 0.6-0.1 0.5-0.1h0.6l0.5-0.1h0.7 15.5l-0.4 4.1h-13.9l-0.4 0.1-0.4 0.1-0.4 0.1-0.3 0.1-0.4 0.2-0.2 0.2-0.3 0.2-0.2 0.3-0.2 0.3-0.2 0.3-0.1 0.4-0.1 0.4-0.1 0.4v0.5 0.7 0.2l0.1 0.2 0.1 0.2v0.3l0.1 0.2 0.2 0.2 0.1 0.2 0.2 0.2 0.2 0.2 0.2 0.1 0.2 0.1 0.1 0.2h0.2 0.3l0.2 0.1 0.3-0.1h0.6l0.2-0.1 0.3-0.1 0.2-0.1 0.4-0.2 0.2-0.2 0.1-0.1 0.2-0.2 0.1-0.2 0.1-0.2 0.1-0.3v-0.2l0.1-0.2 0.1-0.8v-0.7-0.4l-0.1-0.2v-0.3l-0.1-0.3v-0.2l-0.2-0.3v-0.2l-0.2-0.2-0.1-0.2-0.2-0.2-0.1-0.1-0.2-0.1h6.3l0.1 0.1 0.1 0.1 0.2 0.2 0.1 0.3 0.1 0.3 0.1 0.2 0.2 0.4v0.3z"/>
					</g>
					<path id="path5795" fill-rule="evenodd" class="s1" d="m-3339.8-8h144.9v145.8h-144.9z"/>
					<g id="g5797">
						<path id="path5799" fill-rule="evenodd" class="s2" d="m-3210.5 63.9v21.9h-18.8l-25.6 25.7-12.4 12.5h-19.2v-19.3l-37.6-39.2v-19.9h19.5l25.9-27.4 11.1-11.7 20.4-0.1v20.3zm-16-0.2l-21.3-21.9-7.1 0.1-11.4 0.1v3.4l11.4-0.1h6.9l19.3 18.8zm-7.9 21.3l-0.1-18.7h-3.3v18.5l-17.1 17.6-10.9 11.2 0.3 2.2 10.6-10.5zm-31.6 19.2l0.3 2.3 10.8-10.6 11-10.9-0.1-18.6h-3.3v18.5l-7.6 7.9zm-1-20.8l12-11.8 6.6-6.4-6.6-7-11.3-11.9-12.5 12.2-6.1 6 6.1 6.4zm-0.4 14.8v-3.4l-11.4 0.1h-6.9l-28.6-28.1-2.2 0.3 30.7 31.2h7zm-39.8-31.3l21.3 21.9h7.1l11.4-0.2v-3.3h-11.4-6.9l-19.3-18.7zm39.1-42.7l-10.7 10.6-11 10.8 0.1 18.6h3.3v-18.4l7.6-7.9 11-11.5zm-31.2 21.5l0.1 18.5h3.3v-18.4l17.1-17.5 10.9-11.3-0.3-2.2-10.6 10.5zm82.1 17.8l-30.8-31.2-7 0.1h-11.4v3.4h11.4l6.9-0.1 28.6 28.1z"/>
					</g>
					<g id="g5801">
						<path id="path5803" class="s1" d="m-3339.9 178.9h2.9v15.5h-3.1v-10.6h-4.2v-2c2.4-0.3 4.4-1.5 4.4-2.9z"/>
					</g>
					<g id="g5805">
						<path id="path5807" fill-rule="evenodd" class="s1" d="m-3323.6 178.7c4.3 0 6.8 3.9 6.8 7.9 0 3.9-2.3 7.8-6.3 7.8-2.8 0.1-5.5-1.4-6-3.9l3.2-0.3c0.5 0.8 1.3 1.3 2.3 1.3 2 0.1 3.3-1.6 3.6-3.5-0.8 1.1-2.3 1.3-3.8 1.3-3.1 0-5.7-2.3-5.7-5.2 0.1-2.9 2.7-5.4 5.9-5.4zm0.2 7.7c1.6 0 3-0.9 3-2.3 0-1.4-1.4-2.4-3-2.4-1.6 0-2.9 1-2.9 2.4 0 1.4 1.4 2.3 2.9 2.3z"/>
					</g>
					<g id="g5809">
						<path id="path5811" class="s1" d="m-3304.9 178.9h3v15.5h-3.2v-10.6h-4.2v-2c2.5-0.3 4.4-1.5 4.4-2.9z"/>
					</g>
					<g id="g5813">
						<path id="path5815" class="s1" d="m-3287.4 178.9h3v15.5h-3.2v-10.6h-4.2v-2c2.5-0.3 4.4-1.5 4.4-2.9z"/>
					</g>
					<g id="g5817">
						<path id="path5819" class="s1" d="m-3271.9 184.4l2.3-1.3c0.9 1.5 1.6 2.5 2.2 2.5 0.7 0 1.3-0.5 1.3-1.2v-3.5h-6.6v-2.3h19.9v2.3h-2.8v13.7h-2.9v-7h-3.2l-1.1-2.3h4.3v-4.4h-4.8v4.1c0.1 1.6-1 2.9-2.3 2.9-0.5 0.1-0.8-0.1-1-0.3l4.4 6-2.3 1z"/>
					</g>
					<g id="g5821">
						<path id="path5823" class="s1" d="m-3265.6 172.1l1.8-1.5 8.1 8h-2.6z"/>
					</g>
					<g id="g5825">
						<path id="path5827" class="s1" d="m-3230.4 187.7c-0.7 0.4-1.2 0.5-1.5 0.5q-0.5 0-1.9-0.7c0.4 0.4 0.6 1.1 0.6 1.8 0 2.3-2 4.2-4.6 4.2-3 0-6.1-2.6-7.6-6.4l2.1-1c1.3 3.1 3.4 5.1 5.4 5.1 1.1 0.1 2.1-1 2.1-2.4 0-1.6-2.1-2.7-4.2-2.1l-0.7-2c2.1-0.3 3.6-1.3 3.6-2.4 0-0.9-0.8-1.7-1.6-1.7-1.3 0.1-2.8 0.8-4.2 2.1l-1.4-1.7c1.5-1.6 3.5-2.5 5.6-2.5 2.4 0 4.4 1.7 4.4 3.8 0 0.9-0.4 1.8-1.2 2.7 1.2 0.7 2.3 1.1 3.3 1.1 0.4 0 1.1-0.1 1.8-0.5v-4.7h-2.6v-2.3h8.2v2.3h-2.8v13.7h-2.8z"/>
					</g>
					<g id="g5829">
						<path id="path5831" class="s1" d="m-3222.7 180.9h-2.8v-2.3h8.5v2.3h-2.8v13.7h-2.9z"/>
					</g>
					<g id="g5833">
						<path id="path5835" fill-rule="evenodd" class="s1" d="m-3207.5 189.1c-0.9 0.8-2 1.3-3.1 1.3-3 0-5.4-2-5.4-4.5v-5h-1.7v-2.3h15.9v2.3h-2.8v13.7h-2.9zm0-2.6v-5.6h-5.7v5.3c0 1 1.1 1.9 2.6 1.9 1 0 2.2-0.6 3.1-1.6z"/>
					</g>
					<g id="g5837">
						<path id="path5839" class="s1" d="m-3193.3 190.4c-0.9 0.7-1.9 1.1-2.9 1.1-2.7 0-4.9-2.1-4.9-4.6-0.1-2.7 2.3-4.8 5-4.8 0.4 0 0.9 0 1.2 0.2l0.5 2.2q-0.4-0.1-1.3-0.1c-1.4 0-2.5 1.1-2.5 2.5-0.1 1.2 0.9 2.2 2 2.2 1 0 2.1-0.5 2.9-1.5v-6.7h-9.2v-2.3h21.1v2.3h-9v2.8c0.6-0.7 1.8-1.1 3.2-1.1 2.4 0 4.3 1.7 4.3 3.8 0 2.4-1.3 4.7-3.5 6.5l-2.1-1.8c1.6-1.2 2.5-2.9 2.5-4.5 0.1-1-0.7-1.8-1.7-1.8-1 0-2 0.8-2.7 1.9v7.9h-2.9z"/>
					</g>
					<g id="g5841">
						<path id="path5843" class="s1" d="m-3200.4 172.1l1.8-1.5 8.1 8h-2.6z"/>
					</g>
					<g id="g5845">
						<path id="path5847" class="s1" d="m-3172.1 180.9h-2.9v-2.3h2.5q-0.3-0.9-0.3-1.8c0-2.7 2.9-4.9 6.6-4.9 3.8 0 7.5 2.6 9.5 6.5h-2.9c-1.6-2.6-4.2-4.2-6.6-4.2-2.1 0-3.7 1.2-3.7 2.6 0 0.7 0 1.3 0.3 1.8h3.1v2.3h-2.8v13.7h-2.8z"/>
					</g>
					<g id="g5849">
						<path id="path5851" class="s1" d="m-3152.7 185.9c-1.6 0.1-3.2 1.7-3.8 3.9l-2.2-1.2c0.1-0.6 0.4-1.2 0.9-1.9-0.9-0.8-1.7-1.2-2.3-1.2-1.8 0-3.3 1.2-3.3 2.7 0 1.7 2.1 3.6 5.3 4.7l-1.3 1.9c-3.8-1.3-6.4-3.9-6.4-6.6 0-2.8 2.6-5.1 5.7-5.1 1.5 0 3 0.7 4 1.9 1-1 2.2-1.6 3.4-1.6v-2.5h-14.5v-2.3h20.1v2.3h-2.7v13.7h-2.9z"/>
					</g>
					<g id="g5853">
						<path id="path5855" class="s1" d="m-3139.6 196.7c1-0.2 1.6-0.5 1.6-1 0.1-0.4-0.2-0.9-0.8-1.4l-5.2-4.3c-1.3-1.2-1.9-2.4-1.9-3.4v-5.7h-1.8v-2.3h14.3v2.3h-1.7v4.4c0 1.6-1.2 2.9-2.9 3.2-1.2-1.1-1.5-1.4-1.8-1.7 1.1-0.2 1.8-1.2 1.8-2.4v-3.5h-5.1v6.2c0 0.4 0.3 0.9 0.8 1.3l6.1 5.2c0.8 0.9 1.3 1.5 1.3 1.9 0 1.4-1.3 2.6-3.1 2.9z"/>
					</g>
					<g id="g5857">
						<path id="path5859" class="s1" d="m-3121.5 174.5h2.1l-1.4 5.5h-3.5z"/>
					</g>
					<g id="g5861">
						<path id="path5863" class="s1" d="m-3111.6 174.5h2.1l-1.4 5.5h-3.5z"/>
					</g>
					<g id="g5865">
						<path id="path5867" class="s1" d="m-3098.2 190.4c-0.9 0.7-1.9 1.1-2.9 1.1-2.7 0-4.9-2.1-4.9-4.6-0.1-2.7 2.2-4.8 5-4.8q0.6 0 1.2 0.2l0.5 2.2q-0.4-0.1-1.3-0.1c-1.4 0-2.5 1.1-2.5 2.5-0.1 1.2 0.8 2.2 2 2.2 1 0 2-0.5 2.9-1.5v-6.7h-9.2v-2.3h21v2.3h-8.9v2.8c0.5-0.7 1.7-1.1 3.2-1.1 2.3 0 4.3 1.7 4.3 3.8-0.1 2.4-1.3 4.7-3.5 6.5l-2.1-1.8c1.6-1.2 2.5-2.9 2.5-4.5 0.1-1-0.7-1.8-1.7-1.8-1 0-2 0.8-2.7 1.9v7.9h-2.9z"/>
					</g>
					<path id="path5869" class="s1" d="m-3096.8 172h3.5v3.2h-3.5zm-9.3 0.2l1.7-1.6 8.9 8h-2.5z"/>
					<g id="g5871">
						<path id="path5873" class="s1" d="m-3084.1 180.9h-2.8v-2.3h2.5q-0.4-0.9-0.4-1.8c0.1-2.7 3-4.9 6.6-4.9 3.8 0 7.5 2.6 9.6 6.5h-2.9c-1.7-2.6-4.2-4.2-6.7-4.2-2 0-3.7 1.2-3.7 2.6q0 1 0.4 1.8h3.1v2.3h-2.9v13.7h-2.8z"/>
					</g>
					<g id="g5875">
						<path id="path5877" class="s1" d="m-3069.4 192.4l-6.9 4-1.1-1.6 4.5-2.5c-2.9-1-4.8-3.2-4.8-5.6-0.1-2.1 1.8-3.8 4.1-3.8h4.5v-2h-10.1v-2.3h15.9v2.3h-2.9v4.1h-6.4c-1.4 0-2.6 0.6-2.6 1.4 0 2.2 2 3.9 4.5 3.9h0.9c0-1.6 1-2.8 2.3-2.8 1.2-0.1 2.2 0.8 2.2 1.8 0 0.9-0.4 1.8-1.3 2.4 1.3 1.9 1.7 2.5 1.9 3.1l-2.8 0.4c-0.4-0.4-1-1.3-1.9-2.8z"/>
					</g>
					<g id="g5879">
						<path id="path5881" class="s1" d="m-3051.9 185.6h-6.4c-1 0-1.9 0.6-1.9 1.5 0 1.9 1.8 4.2 4.7 6.1l-1.5 1.6c-3.5-2.3-5.7-5.2-5.7-7.9 0-2 2-3.7 4.4-3.7h6.4v-2.3h-12.1v-2.3h17.8v2.3h-2.8v13.7h-2.9z"/>
					</g>
				</g>
			</g>
		</g>
	</g>
</svg>