<?xml version="1.0" encoding="UTF-8" standalone="no"?>
<svg
   xmlns:dc="http://purl.org/dc/elements/1.1/"
   xmlns:cc="http://creativecommons.org/ns#"
   xmlns:rdf="http://www.w3.org/1999/02/22-rdf-syntax-ns#"
   xmlns:svg="http://www.w3.org/2000/svg"
   xmlns="http://www.w3.org/2000/svg"
   viewBox="0 0 708 248"
   height="248"
   width="708"
   xml:space="preserve"
   id="svg2"
   version="1.1"><metadata
     id="metadata8"><rdf:RDF><cc:Work
         rdf:about=""><dc:format>image/svg+xml</dc:format><dc:type
           rdf:resource="http://purl.org/dc/dcmitype/StillImage" /></cc:Work></rdf:RDF></metadata><defs
     id="defs6" /><g
     transform="matrix(1.3333333,0,0,-1.3333333,0,248)"
     id="g10"><g
       transform="scale(0.1)"
       id="g12"><path
         id="path14"
         style="fill:#00b6f0;fill-opacity:1;fill-rule:evenodd;stroke:none"
         d="m 1828.67,939.117 c 0,504.193 -408.71,912.923 -912.897,912.923 C 411.578,1852.04 2.87891,1443.31 2.87891,939.117 2.87891,454.031 377.199,56.793 854.656,26.2266 V 732.859 c -87.84,26.735 -152.785,106.957 -152.785,206.258 0,114.613 95.492,210.093 213.902,210.093 118.407,0 213.907,-95.48 213.907,-210.093 0,-99.301 -64.92,-179.523 -156.606,-206.258 V 26.2266 C 1450.54,56.793 1828.67,454.031 1828.67,939.117 v 0" /><path
         id="path16"
         style="fill:#271e79;fill-opacity:1;fill-rule:evenodd;stroke:none"
         d="m 3122.2,1319.71 c 55.32,110.65 110.65,221.31 165.98,331.96 -314.21,293.78 -911.11,280.81 -1105.71,-139.73 -51.86,-112.1 -50.05,-236.33 -0.58,-366.9 23.89,-63.02 66.85,-141.6 135.09,-197.915 34.87,-28.789 168.84,-95.141 277.15,-144.238 101.33,-45.938 240.82,-78.914 304.86,-169.477 73.19,-103.488 27.99,-231.277 -141.77,-254.547 -95.13,-13.031 -236.73,26.516 -447.76,196.801 -74.41,-97.305 -148.81,-194.598 -223.22,-291.898 709.83,-619.028 1365.05,-77.051 1211.52,404.66 -39,122.363 -119.24,216.461 -218.64,288.269 -153.75,111.035 -314.27,141.135 -421.43,187.845 -200.78,87.52 -172.45,333.88 105.98,318.84 176.21,-9.51 232.82,-59.83 358.53,-163.67" /><path
         id="path18"
         style="fill:#271e79;fill-opacity:1;fill-rule:evenodd;stroke:none"
         d="m 3481.97,1852.76 h 688.25 c 231.38,0 502.67,-201.05 502.67,-441.07 0,-55.46 3.83,-97.03 0.03,-161.43 -7.52,-127.37 -125.05,-270.338 -200.79,-270.338 117.87,0 235.63,-168.836 264.54,-285.707 C 4806.9,410.371 4657.77,6.13672 4170.22,6.13672 h -688.25 z m 369.14,-336.97 h 270.44 c 101.52,0 184.58,-86.16 184.58,-191.49 v -27.43 c 0,-90.23 -71.16,-164.05 -158.13,-164.05 H 4036.39 V 791.395 h 130.22 c 117.66,0 213.92,-99.86 213.92,-221.915 v -0.011 c 0,-122.055 -96.26,-221.914 -213.92,-221.914 h -315.5 c 0,389.414 0,778.825 0,1168.235" /><path
         id="path20"
         style="fill:#271e79;fill-opacity:1;fill-rule:evenodd;stroke:none"
         d="m 4920.68,1852.76 h 389.2 V 6.14063 h -389.2 V 1852.76" /></g></g></svg>